<?xml version="1.0" encoding="utf-8"?>
<!-- Generator: Adobe Illustrator 16.0.0, SVG Export Plug-In . SVG Version: 6.00 Build 0)  -->
<!DOCTYPE svg PUBLIC "-//W3C//DTD SVG 1.1//EN" "http://www.w3.org/Graphics/SVG/1.1/DTD/svg11.dtd">
<svg version="1.1" id="Ebene_1" xmlns="http://www.w3.org/2000/svg" xmlns:xlink="http://www.w3.org/1999/xlink" x="0px" y="0px"
	 width="520.333px" height="146.941px" viewBox="0 0 520.333 146.941" style="enable-background:new 0 0 520.333 146.941;"
	 xml:space="preserve">
<style type="text/css">
<![CDATA[
	.st0{fill:#181716;}
	.st1{fill:#949D3A;}
]]>
</style>
<g>
	<path class="st0" d="M520.333,2.852h-17.556v2.94h1.596c3.864,0,5.04,1.092,5.04,7.728v32.928l-38.472-44.1h-2.521V49.22
		c0,5.376-1.176,6.132-6.048,6.132h-0.588v2.94h17.556v-2.94h-0.588c-4.872,0-6.048-0.756-6.048-6.132V15.116l38.472,44.016h2.521
		V13.52c0-6.636,1.176-7.728,5.04-7.728h1.596V2.852z M423.061,54.428c12.937,0,21-8.4,21-22.26
		c0-13.272-10.332-25.452-23.352-25.452c-12.936,0-21,8.4-21,22.26C399.709,42.248,410.042,54.428,423.061,54.428 M449.606,28.556
		c0,17.388-12.097,30.576-29.232,30.576c-15.12,0-26.208-10.668-26.208-26.544c0-17.388,12.096-30.576,29.232-30.576
		C438.517,2.012,449.606,12.68,449.606,28.556 M380.726,58.292h-19.991v-2.94h0.588c4.872,0,6.048-0.756,6.048-6.132v-35.7
		c0-6.636-1.176-7.728-5.04-7.728h-1.596v-2.94h19.991v2.94h-1.596c-3.864,0-5.04,1.092-5.04,7.728v35.7
		c0,5.376,1.176,6.132,6.048,6.132h0.588V58.292z M322.85,32.672c-1.764,0-3.611-0.42-5.04-1.176V6.044
		c1.681-0.252,3.864-0.588,5.208-0.588c8.652,0,13.272,6.048,13.272,13.02C336.291,27.632,330.327,32.672,322.85,32.672
		 M349.394,55.688c-2.1,0-3.359-0.42-4.787-1.764c-2.94-2.772-6.889-11.508-11.341-20.748c5.544-2.772,9.492-8.148,9.492-15.792
		c0-8.736-4.872-15.036-16.884-15.036c-3.528,0-7.644,0.504-11.424,0.504h-9.996v2.94h1.596c3.864,0,5.04,1.092,5.04,7.728v35.7
		c0,5.376-1.176,6.132-6.048,6.132h-0.588v2.94h19.992v-2.94h-0.588c-4.872,0-6.049-0.756-6.049-6.132V35.108
		c1.597,0.168,3.612,0.336,5.629,0.336c1.176,0,2.436-0.084,3.527-0.252c4.956,10.416,9.156,18.9,10.584,20.916
		c1.681,2.268,2.353,3.024,7.477,3.024c3.107,0,5.628-0.588,6.888-1.26v-2.52C351.327,55.52,350.403,55.688,349.394,55.688
		 M201.808,32.336c-0.756,0-1.428-0.084-2.184-0.252v2.688c0.924,0.168,1.848,0.252,2.772,0.252c10.08,0,19.32-6.3,19.32-18.06
		c0-8.736-4.872-14.616-16.884-14.616c-3.528,0-7.644,0.504-11.424,0.504h-9.996v2.94h1.596c3.864,0,5.04,1.092,5.04,7.728v35.7
		c0,5.376-1.176,6.132-6.048,6.132h-0.588v2.94h23.352v-3.696c-0.924,0.252-2.1,0.42-3.108,0.42c-4.872,0-6.888-0.756-6.888-5.796
		V6.044c1.68-0.252,3.864-0.588,5.208-0.588c8.652,0,13.272,5.628,13.272,12.6C215.248,27.212,209.284,32.336,201.808,32.336
		 M171.401,55.688c-1.848,0-3.108-0.504-3.948-1.596c-1.26-1.596-1.764-3.864-2.268-7.56l-4.872-44.184h-2.016
		c-1.596,3.612-14.532,33.264-18.984,43.26l-21.168-43.26h-2.016l-5.964,47.04c-0.672,5.712-2.016,5.964-5.712,5.964h-1.26v2.94
		h17.556v-2.94h-0.84c-2.772,0-3.528-0.42-4.032-0.924s-1.428-1.26-1.008-4.956l3.696-30.828l18.396,37.548h1.848l16.716-37.548
		l3.948,37.464c0.252,2.184,2.268,3.024,6.972,3.024c3.696,0,5.544-0.504,7.308-1.26v-2.52
		C173.25,55.52,172.326,55.688,171.401,55.688 M92.525,46.448h-2.268c0,6.552-3.78,7.98-11.256,7.98h-5.46v-23.52
		c3.528,0,8.316,0.084,10.164,0.252c2.268,0.168,2.772,1.176,2.772,2.604c0,0.84-0.168,1.764-0.336,2.352h2.016
		c0.42-1.764,0.756-3.78,0.756-5.796c0-1.764-0.42-3.108-0.756-3.528c-2.1,0.252-6.552,0.588-13.104,0.588h-1.512V6.716
		c3.948,0,10.248,0.084,12.012,0.252c2.268,0.168,2.94,1.092,2.94,2.688c0,1.092-0.504,3.108-0.756,4.2h2.436
		c0.672-2.1,1.344-4.956,1.344-7.896c0-1.764-0.42-3.108-0.756-3.528c-2.1,0.252-6.552,0.42-14.364,0.42H60.186v2.94h1.596
		c3.864,0,5.04,1.092,5.04,7.728v35.7c0,5.376-1.176,6.132-6.048,6.132h-0.588v2.94h25.452c4.704,0,7.056-1.26,7.056-7.056
		C92.693,50.48,92.609,47.624,92.525,46.448"/>
	<path class="st0" d="M324.854,100.825v-10.15c0-1.421,1.508-2.494,4.002-2.494h1.363v-2.32h-0.899c-2.436,0-3.799,1.334-4.32,2.755
		h-0.146v-2.755h-2.319v14.964H324.854z M314.472,82.903c0.986,0,1.421-0.522,1.421-1.334V81.25c0-0.812-0.435-1.334-1.421-1.334
		s-1.421,0.522-1.421,1.334v0.319C313.051,82.381,313.486,82.903,314.472,82.903 M309.079,82.903c0.985,0,1.421-0.522,1.421-1.334
		V81.25c0-0.812-0.436-1.334-1.421-1.334c-0.986,0-1.422,0.522-1.422,1.334v0.319C307.657,82.381,308.092,82.903,309.079,82.903
		 M315.285,100.825h2.319V85.861h-2.319v10.353c0,1.972-1.799,2.871-3.625,2.871c-2.233,0-3.423-1.363-3.423-4.031v-9.193h-2.319
		v9.599c0,3.625,1.972,5.713,5.046,5.713c2.494,0,3.625-1.363,4.205-2.784h0.116V100.825z M297.478,100.825h2.32V87.891h3.219v-2.03
		h-3.219v-4.466h3.219v-2.03h-2.262c-2.204,0-3.277,1.421-3.277,3.48v3.016h-2.436v2.03h2.436V100.825z M279.18,99.085
		c-2.117,0-3.857-1.102-3.857-3.045v-5.568c0-1.653,1.74-2.871,3.857-2.871c2.61,0,4.234,1.798,4.234,4.466v2.552
		C283.415,97.287,281.79,99.085,279.18,99.085 M273.003,100.825h2.32v-2.436h0.116c0.899,1.856,2.32,2.784,4.379,2.784
		c3.741,0,6.09-3.045,6.09-7.83s-2.35-7.83-6.09-7.83c-2.059,0-3.596,0.899-4.379,2.784h-0.116v-8.932h-2.32V100.825z
		 M265.753,100.825h2.32V85.861h-2.32v10.353c0,1.972-1.798,2.871-3.625,2.871c-2.233,0-3.422-1.363-3.422-4.031v-9.193h-2.32v9.599
		c0,3.625,1.972,5.713,5.046,5.713c2.494,0,3.625-1.363,4.205-2.784h0.116V100.825z M248.933,100.825h2.436V80.583h-2.436v8.932
		h-10.237v-8.932h-2.436v20.242h2.436v-9.164h10.237V100.825z M231.563,90.762h-7.569v2.494h7.569V90.762z M210.306,100.825V90.443
		c0-1.914,1.798-2.842,3.654-2.842c2.233,0,3.393,1.363,3.393,4.031v9.193h2.32v-9.599c0-3.625-1.943-5.713-5.017-5.713
		c-2.233,0-3.509,1.102-4.234,2.784h-0.116v-2.436h-2.32v14.964H210.306z M197.691,87.456c2.378,0,3.973,1.769,3.973,4.408v0.319
		h-8.265V91.98C193.399,89.37,195.168,87.456,197.691,87.456 M197.691,101.173c2.813,0,4.959-1.392,5.916-3.422l-1.653-1.189
		c-0.783,1.653-2.233,2.581-4.118,2.581c-2.784,0-4.437-1.943-4.437-4.524v-0.696h10.759v-1.102c0-4.234-2.465-7.308-6.467-7.308
		c-4.06,0-6.728,3.074-6.728,7.83S193.631,101.173,197.691,101.173 M188.208,100.825v-2.03h-3.045V87.891h3.277v-2.03h-3.277v-4.147
		h-2.088v2.784c0,1.015-0.319,1.363-1.305,1.363h-1.392v2.03h2.465V98.36c0,1.45,0.87,2.465,2.465,2.465H188.208z M170.721,99.201
		c-1.798,0-2.958-0.841-2.958-2.32v-0.609c0-1.45,1.189-2.262,3.828-2.262h3.074v2.465
		C174.665,98.012,173.012,99.201,170.721,99.201 M178.696,100.825v-2.03h-1.711v-8.236c0-3.161-2.146-5.046-5.742-5.046
		c-2.697,0-4.495,1.334-5.307,2.929l1.392,1.305c0.812-1.363,2.001-2.233,3.799-2.233c2.378,0,3.538,1.16,3.538,3.277v1.479h-2.958
		c-4.35,0-6.38,1.566-6.38,4.379c0,2.784,1.856,4.524,5.017,4.524c2.088,0,3.683-0.957,4.321-2.784h0.145
		c0.174,1.392,0.87,2.436,2.581,2.436H178.696z M155.41,99.085c-2.61,0-4.234-1.798-4.234-4.466v-2.552
		c0-2.668,1.624-4.466,4.234-4.466c2.117,0,3.857,1.218,3.857,2.871v5.568C159.267,97.983,157.527,99.085,155.41,99.085
		 M159.267,100.825h2.32v-21.46h-2.32v8.932h-0.116c-0.783-1.885-2.32-2.784-4.379-2.784c-3.741,0-6.09,3.045-6.09,7.83
		s2.349,7.83,6.09,7.83c2.059,0,3.48-0.928,4.379-2.784h0.116V100.825z M140.069,101.173c3.422,0,5.539-1.769,5.539-4.669
		c0-2.262-1.276-3.712-4.582-4.205l-1.16-0.174c-1.856-0.29-2.871-0.87-2.871-2.32c0-1.421,1.015-2.32,2.929-2.32
		s3.19,0.899,3.857,1.827l1.537-1.392c-1.218-1.508-2.813-2.407-5.22-2.407c-3.045,0-5.336,1.45-5.336,4.408
		c0,2.784,2.059,3.915,4.814,4.321l1.189,0.174c1.972,0.29,2.61,1.189,2.61,2.349c0,1.537-1.16,2.436-3.132,2.436
		c-1.885,0-3.277-0.841-4.437-2.291l-1.653,1.334C135.487,100.013,137.314,101.173,140.069,101.173 M125.511,93.981
		c-1.972,0-3.219-0.928-3.219-2.9v-0.812c0-1.972,1.247-2.9,3.219-2.9s3.219,0.928,3.219,2.9v0.812
		C128.73,93.053,127.483,93.981,125.511,93.981 M130.702,102.652c0,1.624-1.508,2.436-4.089,2.436h-2.146
		c-2.349,0-3.248-1.072-3.248-2.378c0-0.928,0.435-1.595,1.392-2.03h4.988C129.919,100.68,130.702,101.463,130.702,102.652
		 M132.877,102.478c0-2.465-1.595-3.973-5.307-3.973h-3.19c-1.363,0-2.291-0.232-2.291-1.131c0-0.928,0.986-1.421,1.972-1.682
		c0.435,0.087,0.957,0.145,1.45,0.145c3.422,0,5.655-2.117,5.655-5.162c0-1.595-0.638-2.929-1.711-3.857v-0.957h2.842v-2.03h-2.233
		c-1.247,0-1.74,0.841-1.74,2.001v0.261c-0.812-0.377-1.769-0.58-2.842-0.58c-3.393,0-5.626,2.117-5.626,5.162
		c0,2.088,1.044,3.741,2.813,4.582v0.116c-1.508,0.377-2.581,1.102-2.581,2.61c0,1.015,0.493,1.682,1.334,2.088v0.319
		c-1.479,0.406-2.378,1.276-2.378,2.9c0,2.35,1.914,3.684,6.583,3.684C130.441,106.974,132.877,105.552,132.877,102.478
		 M106.11,100.825V90.443c0-1.914,1.798-2.842,3.654-2.842c2.233,0,3.393,1.363,3.393,4.031v9.193h2.32v-9.599
		c0-3.625-1.943-5.713-5.017-5.713c-2.233,0-3.509,1.102-4.234,2.784h-0.116v-2.436h-2.32v14.964H106.11z M96.54,100.825h2.32
		V85.861h-2.32v10.353c0,1.972-1.798,2.871-3.625,2.871c-2.233,0-3.422-1.363-3.422-4.031v-9.193h-2.32v9.599
		c0,3.625,1.972,5.713,5.046,5.713c2.494,0,3.625-1.363,4.205-2.784h0.116V100.825z M70.846,100.825h2.32V90.443
		c0-1.914,1.798-2.842,3.654-2.842c2.233,0,3.393,1.363,3.393,4.031v9.193h2.32v-9.599c0-3.625-1.943-5.713-5.017-5.713
		c-2.233,0-3.509,1.102-4.234,2.784h-0.116v-8.932h-2.32V100.825z M61.828,101.173c2.842,0,4.785-1.392,5.742-3.538l-1.682-1.131
		c-0.813,1.711-2.175,2.61-4.06,2.61c-2.755,0-4.177-1.885-4.177-4.495v-2.552c0-2.61,1.422-4.495,4.177-4.495
		c1.827,0,3.103,0.899,3.654,2.436l1.942-0.986c-0.87-2.059-2.638-3.509-5.596-3.509c-4.205,0-6.671,3.045-6.671,7.83
		S57.623,101.173,61.828,101.173 M46.632,101.173c3.422,0,5.539-1.769,5.539-4.669c0-2.262-1.276-3.712-4.582-4.205l-1.16-0.174
		c-1.856-0.29-2.871-0.87-2.871-2.32c0-1.421,1.015-2.32,2.929-2.32s3.19,0.899,3.857,1.827l1.537-1.392
		c-1.218-1.508-2.813-2.407-5.22-2.407c-3.045,0-5.336,1.45-5.336,4.408c0,2.784,2.059,3.915,4.814,4.321l1.189,0.174
		c1.972,0.29,2.61,1.189,2.61,2.349c0,1.537-1.16,2.436-3.132,2.436c-1.885,0-3.277-0.841-4.437-2.291l-1.653,1.334
		C42.05,100.013,43.877,101.173,46.632,101.173 M33.814,100.825v-10.15c0-1.421,1.508-2.494,4.002-2.494h1.363v-2.32H38.28
		c-2.436,0-3.799,1.334-4.321,2.755h-0.145v-2.755h-2.32v14.964H33.814z M20.909,99.114c-2.494,0-4.263-1.537-4.263-4.698V92.27
		c0-3.161,1.769-4.698,4.263-4.698s4.263,1.537,4.263,4.698v2.146C25.172,97.577,23.403,99.114,20.909,99.114 M20.909,101.173
		c4.002,0,6.757-3.074,6.757-7.83s-2.755-7.83-6.757-7.83s-6.757,3.074-6.757,7.83S16.907,101.173,20.909,101.173 M2.436,100.825
		v-9.164h8.787v-2.146H2.436v-6.786h9.628v-2.146H0v20.242H2.436z"/>
	<path class="st0" d="M461.667,127.425c2.378,0,3.973,1.769,3.973,4.408v0.318h-8.265v-0.203
		C457.375,129.339,459.143,127.425,461.667,127.425 M461.667,141.142c2.812,0,4.959-1.392,5.916-3.422l-1.653-1.189
		c-0.783,1.653-2.233,2.581-4.118,2.581c-2.784,0-4.437-1.942-4.437-4.523v-0.696h10.759v-1.102c0-4.234-2.465-7.309-6.467-7.309
		c-4.061,0-6.729,3.074-6.729,7.83S457.606,141.142,461.667,141.142 M452.183,140.794v-2.03h-3.045v-10.904h3.277v-2.029h-3.277
		v-4.147h-2.088v2.784c0,1.015-0.319,1.363-1.306,1.363h-1.392v2.029h2.465v10.47c0,1.449,0.87,2.465,2.465,2.465H452.183z
		 M429.505,140.794h2.319v-10.382c0-1.914,1.799-2.843,3.654-2.843c2.233,0,3.394,1.363,3.394,4.031v9.193h2.319v-9.6
		c0-3.625-1.942-5.713-5.017-5.713c-2.233,0-3.509,1.103-4.234,2.784h-0.116v-8.932h-2.319V140.794z M420.486,141.142
		c2.843,0,4.785-1.392,5.742-3.538l-1.682-1.131c-0.812,1.711-2.175,2.61-4.061,2.61c-2.755,0-4.176-1.886-4.176-4.495v-2.552
		c0-2.61,1.421-4.495,4.176-4.495c1.827,0,3.104,0.898,3.654,2.436l1.943-0.986c-0.87-2.059-2.64-3.509-5.598-3.509
		c-4.205,0-6.67,3.045-6.67,7.83S416.281,141.142,420.486,141.142 M407.668,140.794h2.319V125.83h-2.319V140.794z M408.829,122.32
		c0.985,0,1.421-0.521,1.421-1.305v-0.377c0-0.783-0.436-1.305-1.421-1.305c-0.986,0-1.422,0.521-1.422,1.305v0.377
		C407.407,121.799,407.842,122.32,408.829,122.32 M391.196,140.794h2.32v-10.382c0-1.914,1.798-2.843,3.654-2.843
		c2.232,0,3.393,1.363,3.393,4.031v9.193h2.32v-9.6c0-3.625-1.943-5.713-5.018-5.713c-2.232,0-3.509,1.103-4.233,2.784h-0.116
		v-8.932h-2.32V140.794z M382.178,141.142c2.842,0,4.785-1.392,5.742-3.538l-1.683-1.131c-0.812,1.711-2.175,2.61-4.06,2.61
		c-2.755,0-4.176-1.886-4.176-4.495v-2.552c0-2.61,1.421-4.495,4.176-4.495c1.827,0,3.103,0.898,3.654,2.436l1.942-0.986
		c-0.87-2.059-2.639-3.509-5.597-3.509c-4.205,0-6.67,3.045-6.67,7.83S377.973,141.142,382.178,141.142 M366.982,141.142
		c3.422,0,5.539-1.769,5.539-4.669c0-2.262-1.276-3.712-4.582-4.205l-1.16-0.174c-1.855-0.29-2.871-0.87-2.871-2.32
		c0-1.421,1.016-2.319,2.93-2.319s3.189,0.898,3.856,1.826l1.537-1.392c-1.218-1.508-2.812-2.407-5.22-2.407
		c-3.045,0-5.336,1.45-5.336,4.408c0,2.784,2.059,3.915,4.813,4.321l1.189,0.174c1.972,0.29,2.61,1.188,2.61,2.349
		c0,1.537-1.16,2.437-3.133,2.437c-1.885,0-3.276-0.841-4.437-2.291l-1.653,1.334C362.4,139.981,364.227,141.142,366.982,141.142
		 M352.192,127.425c2.378,0,3.974,1.769,3.974,4.408v0.318H347.9v-0.203C347.9,129.339,349.669,127.425,352.192,127.425
		 M352.192,141.142c2.813,0,4.959-1.392,5.916-3.422l-1.652-1.189c-0.783,1.653-2.233,2.581-4.118,2.581
		c-2.784,0-4.438-1.942-4.438-4.523v-0.696h10.759v-1.102c0-4.234-2.465-7.309-6.467-7.309c-4.06,0-6.728,3.074-6.728,7.83
		S348.132,141.142,352.192,141.142 M336.677,133.949c-1.972,0-3.219-0.928-3.219-2.899v-0.812c0-1.972,1.247-2.899,3.219-2.899
		s3.219,0.928,3.219,2.899v0.812C339.896,133.021,338.649,133.949,336.677,133.949 M341.868,142.621
		c0,1.624-1.508,2.436-4.089,2.436h-2.146c-2.35,0-3.248-1.073-3.248-2.378c0-0.928,0.435-1.595,1.392-2.03h4.988
		C341.085,140.648,341.868,141.432,341.868,142.621 M344.043,142.446c0-2.465-1.596-3.973-5.308-3.973h-3.189
		c-1.363,0-2.291-0.231-2.291-1.131c0-0.928,0.985-1.421,1.972-1.682c0.436,0.087,0.957,0.145,1.45,0.145
		c3.422,0,5.655-2.117,5.655-5.162c0-1.595-0.639-2.929-1.711-3.856v-0.957h2.842v-2.03h-2.233c-1.247,0-1.74,0.841-1.74,2.001
		v0.261c-0.812-0.377-1.769-0.58-2.842-0.58c-3.393,0-5.626,2.117-5.626,5.162c0,2.088,1.044,3.741,2.813,4.582v0.116
		c-1.509,0.377-2.581,1.102-2.581,2.61c0,1.015,0.493,1.682,1.334,2.088v0.318c-1.479,0.406-2.378,1.276-2.378,2.9
		c0,2.349,1.914,3.683,6.583,3.683C341.607,146.941,344.043,145.521,344.043,142.446 M322.09,141.142
		c3.422,0,5.539-1.769,5.539-4.669c0-2.262-1.276-3.712-4.582-4.205l-1.16-0.174c-1.856-0.29-2.871-0.87-2.871-2.32
		c0-1.421,1.015-2.319,2.929-2.319s3.19,0.898,3.857,1.826l1.537-1.392c-1.218-1.508-2.813-2.407-5.221-2.407
		c-3.045,0-5.336,1.45-5.336,4.408c0,2.784,2.06,3.915,4.814,4.321l1.188,0.174c1.973,0.29,2.61,1.188,2.61,2.349
		c0,1.537-1.16,2.437-3.132,2.437c-1.885,0-3.277-0.841-4.438-2.291l-1.652,1.334C317.508,139.981,319.335,141.142,322.09,141.142
		 M313.623,140.794v-2.03h-3.046v-10.904h3.277v-2.029h-3.277v-4.147h-2.088v2.784c0,1.015-0.318,1.363-1.305,1.363h-1.392v2.029
		h2.465v10.47c0,1.449,0.87,2.465,2.465,2.465H313.623z M298.833,140.794h2.319v-12.935h3.22v-2.029h-3.22v-4.467h3.22v-2.029
		h-2.263c-2.204,0-3.276,1.421-3.276,3.479v3.017h-2.437v2.029h2.437V140.794z M286.739,139.17c-1.798,0-2.958-0.841-2.958-2.32
		v-0.609c0-1.449,1.189-2.262,3.828-2.262h3.074v2.465C290.683,137.98,289.03,139.17,286.739,139.17 M294.714,140.794v-2.03h-1.711
		v-8.236c0-3.16-2.146-5.046-5.742-5.046c-2.697,0-4.495,1.334-5.307,2.93l1.392,1.305c0.812-1.363,2.001-2.233,3.799-2.233
		c2.378,0,3.538,1.16,3.538,3.277v1.479h-2.958c-4.35,0-6.38,1.566-6.38,4.38c0,2.783,1.855,4.523,5.017,4.523
		c2.088,0,3.684-0.957,4.321-2.784h0.146c0.174,1.393,0.869,2.437,2.58,2.437H294.714z M266.062,140.794h2.32v-10.382
		c0-1.914,1.798-2.843,3.654-2.843c2.233,0,3.393,1.363,3.393,4.031v9.193h2.32v-9.6c0-3.625-1.943-5.713-5.017-5.713
		c-2.233,0-3.509,1.103-4.234,2.784h-0.116v-8.932h-2.32V140.794z M257.044,141.142c2.841,0,4.784-1.392,5.741-3.538l-1.681-1.131
		c-0.813,1.711-2.176,2.61-4.06,2.61c-2.756,0-4.177-1.886-4.177-4.495v-2.552c0-2.61,1.421-4.495,4.177-4.495
		c1.826,0,3.102,0.898,3.653,2.436l1.943-0.986c-0.87-2.059-2.639-3.509-5.596-3.509c-4.206,0-6.671,3.045-6.671,7.83
		S252.838,141.142,257.044,141.142 M241.848,141.142c3.422,0,5.538-1.769,5.538-4.669c0-2.262-1.276-3.712-4.582-4.205l-1.159-0.174
		c-1.857-0.29-2.872-0.87-2.872-2.32c0-1.421,1.015-2.319,2.929-2.319c1.915,0,3.191,0.898,3.857,1.826l1.537-1.392
		c-1.218-1.508-2.813-2.407-5.219-2.407c-3.046,0-5.336,1.45-5.336,4.408c0,2.784,2.059,3.915,4.813,4.321l1.19,0.174
		c1.971,0.29,2.609,1.188,2.609,2.349c0,1.537-1.159,2.437-3.132,2.437c-1.885,0-3.277-0.841-4.436-2.291l-1.653,1.334
		C237.265,139.981,239.093,141.142,241.848,141.142 M233.38,140.794v-2.03h-3.045v-10.904h3.277v-2.029h-3.277v-4.147h-2.088v2.784
		c0,1.015-0.319,1.363-1.305,1.363h-1.392v2.029h2.465v10.47c0,1.449,0.87,2.465,2.465,2.465H233.38z M218.735,140.794v-10.15
		c0-1.421,1.508-2.494,4.002-2.494h1.363v-2.319h-0.899c-2.436,0-3.799,1.334-4.321,2.755h-0.146v-2.755h-2.32v14.964H218.735z
		 M209.165,140.794h2.32V125.83h-2.32V140.794z M210.325,122.32c0.986,0,1.421-0.521,1.421-1.305v-0.377
		c0-0.783-0.435-1.305-1.421-1.305s-1.421,0.521-1.421,1.305v0.377C208.904,121.799,209.339,122.32,210.325,122.32 M189.068,140.794
		l2.697-10.092l1.914-7.425h0.058l1.856,7.425l2.639,10.092h2.697l5.191-20.242h-2.494l-2.291,9.744l-1.74,7.54h-0.087l-1.885-7.54
		l-2.465-9.744h-2.784l-2.552,9.744l-1.885,7.568h-0.058l-1.682-7.568l-2.175-9.744h-2.581l4.93,20.242H189.068z M162.389,139.111
		c-2.436,0-4.002-1.334-4.002-3.45v-0.436c0-2.262,1.392-3.219,2.958-4.06l5.423,5.857
		C165.753,138.3,164.332,139.111,162.389,139.111 M162.969,122.146c1.479,0,2.755,0.899,2.755,2.465v0.349
		c0,1.595-1.827,2.899-3.654,3.886c-1.16-1.305-1.943-2.465-1.943-3.625v-0.348C160.127,123.336,161.316,122.146,162.969,122.146
		 M170.248,140.794h3.016l-3.944-4.205c0.638-1.276,1.131-2.784,1.392-4.466h2.059v-1.973h-3.944
		c-0.087,1.711-0.377,3.422-0.957,4.901l-4.553-4.901c2.552-1.421,4.64-2.929,4.64-5.597c0-2.581-2.001-4.35-4.872-4.35
		c-3.161,0-5.249,2.146-5.249,4.872c0,1.798,0.899,3.306,2.291,4.756c-2.088,1.131-4.147,2.696-4.147,5.713
		c0,3.103,2.204,5.597,6.206,5.597c3.277,0,5.075-1.711,5.887-2.726L170.248,140.794z M145.047,130.73h-7.569v2.494h7.569V130.73z
		 M134.869,140.794v-2.03h-2.204v-19.43h-2.32v19.053c0,1.392,0.87,2.407,2.465,2.407H134.869z M119.064,139.17
		c-1.798,0-2.958-0.841-2.958-2.32v-0.609c0-1.449,1.189-2.262,3.828-2.262h3.074v2.465
		C123.008,137.98,121.355,139.17,119.064,139.17 M127.039,140.794v-2.03h-1.711v-8.236c0-3.16-2.146-5.046-5.742-5.046
		c-2.697,0-4.495,1.334-5.307,2.93l1.392,1.305c0.812-1.363,2.001-2.233,3.799-2.233c2.378,0,3.538,1.16,3.538,3.277v1.479h-2.958
		c-4.35,0-6.38,1.566-6.38,4.38c0,2.783,1.856,4.523,5.017,4.523c2.088,0,3.683-0.957,4.321-2.784h0.145
		c0.174,1.393,0.87,2.437,2.581,2.437H127.039z M107.609,140.794h2.32V125.83h-2.32V140.794z M108.769,122.32
		c0.986,0,1.421-0.521,1.421-1.305v-0.377c0-0.783-0.435-1.305-1.421-1.305s-1.421,0.521-1.421,1.305v0.377
		C107.348,121.799,107.783,122.32,108.769,122.32 M104.187,140.794v-2.03h-8.903l8.671-11.194v-1.739H92.906v2.029h8.236
		l-8.497,10.991v1.943H104.187z M83.713,139.083c-2.494,0-4.263-1.537-4.263-4.698v-2.146c0-3.16,1.769-4.697,4.263-4.697
		c2.494,0,4.263,1.537,4.263,4.697v2.146C87.976,137.546,86.207,139.083,83.713,139.083 M83.713,141.142
		c4.002,0,6.757-3.074,6.757-7.83s-2.755-7.83-6.757-7.83c-4.002,0-6.757,3.074-6.757,7.83S79.711,141.142,83.713,141.142
		 M67.125,141.142c4.35,0,6.96-2.378,6.96-6.09c0-3.016-1.711-4.756-5.655-5.655l-1.653-0.377c-2.552-0.58-3.799-1.45-3.799-3.364
		c0-2.175,1.595-3.306,4.176-3.306c2.349,0,3.886,0.957,4.988,2.494l1.827-1.334c-1.508-2.146-3.654-3.306-6.699-3.306
		c-3.973,0-6.699,1.942-6.699,5.539c0,3.103,2.03,4.727,5.713,5.567l1.653,0.377c2.668,0.609,3.741,1.566,3.741,3.48
		c0,2.319-1.566,3.828-4.466,3.828c-2.349,0-4.031-1.016-5.452-2.9l-1.798,1.508C61.586,139.808,63.877,141.142,67.125,141.142"/>
	<path class="st1" d="M266.655,59.556c1.512-0.084,5.796-1.092,7.896-2.268l-6.132-18.984l16.128,11.844
		c1.513-1.848,3.612-4.452,4.536-6.888l-23.688-8.988L266.655,59.556z M239.607,50.064l16.128-11.676l-6.216,18.984
		c2.184,0.84,5.292,2.016,7.896,2.184l1.26-25.284l-23.688,8.988C235.575,44.688,237.843,48.384,239.607,50.064 M292.275,26.292
		h-19.992l16.296-11.676c-1.344-2.016-3.192-4.872-5.208-6.468l-15.876,19.74l24.444,6.636
		C292.359,33.012,292.695,28.644,292.275,26.292 M240.699,8.148c-1.176,1.008-3.948,4.284-5.04,6.468l16.128,11.76l-19.992-0.084
		c-0.168,2.352-0.252,5.712,0.336,8.232l24.444-6.636L240.699,8.148z M268.167,0l-6.132,18.984L255.903,0
		c-2.268,0.504-5.46,1.512-7.728,2.856l13.86,21.168l13.86-21.168C274.635,2.016,270.603,0.42,268.167,0"/>
</g>
</svg>
