<?xml version="1.0" encoding="utf-8"?>
<!-- Generator: Adobe Illustrator 16.0.0, SVG Export Plug-In . SVG Version: 6.00 Build 0)  -->
<!DOCTYPE svg PUBLIC "-//W3C//DTD SVG 1.1//EN" "http://www.w3.org/Graphics/SVG/1.1/DTD/svg11.dtd">
<svg version="1.1" id="Ebene_1" xmlns="http://www.w3.org/2000/svg" xmlns:xlink="http://www.w3.org/1999/xlink" x="0px" y="0px"
	 width="525.488px" height="146.521px" viewBox="0 0 525.488 146.521" style="enable-background:new 0 0 525.488 146.521;"
	 xml:space="preserve">
<style type="text/css">
<![CDATA[
	.st0{fill:#181716;}
]]>
</style>
<g>
	<path class="st0" d="M525.488,2.432h-17.976v2.94h1.596c3.864,0,5.04,1.092,5.04,7.728v32.508l-38.052-43.68h-2.521V48.8
		c0,5.376-1.176,6.132-6.048,6.132h-0.588v2.94h17.977v-2.94h-0.588c-4.872,0-6.049-0.756-6.049-6.132V15.2l38.053,43.512h2.52V13.1
		c0-6.636,1.176-7.728,5.04-7.728h1.596V2.432z M426.958,54.008c12.936,0,21-10.08,21-22.26c0-13.272-10.332-25.452-23.353-25.452
		c-12.936,0-21,10.08-21,22.26C403.605,41.828,413.937,54.008,426.958,54.008 M453.501,27.296c0,18.228-12.097,31.416-29.232,31.416
		c-14.28,0-26.208-9.828-26.208-25.704c0-18.228,12.096-31.416,29.232-31.416C441.573,1.592,453.501,11.42,453.501,27.296
		 M382.522,57.872H362.53v-2.94h0.588c4.872,0,6.049-0.756,6.049-6.132V13.1c0-6.636-1.177-7.728-5.04-7.728h-1.597v-2.94h19.992
		v2.94h-1.596c-3.864,0-5.04,1.092-5.04,7.728v35.7c0,5.376,1.176,6.132,6.048,6.132h0.588V57.872z M324.226,32.252
		c-1.764,0-3.612-0.42-5.04-1.176V5.624c1.68-0.252,3.864-0.588,5.208-0.588c8.652,0,13.272,6.048,13.272,13.02
		C337.667,27.212,331.702,32.252,324.226,32.252 M350.77,55.268c-2.1,0-3.36-0.42-4.788-1.764
		c-2.939-2.772-6.888-11.508-11.34-20.748c5.544-2.772,9.492-8.148,9.492-15.792c0-8.736-4.872-15.036-16.884-15.036
		c-3.528,0-7.645,0.504-11.425,0.504h-9.995v2.94h1.596c3.864,0,5.04,1.092,5.04,7.728v35.7c0,5.376-1.176,6.132-6.048,6.132h-0.588
		v2.94h19.991v-2.94h-0.588c-4.872,0-6.048-0.756-6.048-6.132V34.688c1.596,0.168,3.612,0.336,5.628,0.336
		c1.176,0,2.437-0.084,3.528-0.252c4.956,10.416,9.156,18.9,10.584,20.916c1.68,2.268,2.352,3.024,7.476,3.024
		c3.108,0,5.628-0.588,6.889-1.26v-2.52C352.702,55.1,351.778,55.268,350.77,55.268 M268.03,59.556
		c1.512-0.084,5.796-1.092,7.896-2.268l-6.132-18.984l16.128,11.844c1.512-1.848,3.611-4.452,4.536-6.888l-23.688-8.988
		L268.03,59.556z M240.982,50.064l16.128-11.676l-6.216,18.984c2.184,0.84,5.292,2.016,7.896,2.184l1.26-25.284l-23.688,8.988
		C236.95,44.688,239.218,48.384,240.982,50.064 M293.65,26.292h-19.992l16.296-11.676c-1.345-2.016-3.192-4.872-5.208-6.468
		l-15.876,19.74l24.444,6.636C293.734,33.012,294.07,28.644,293.65,26.292 M242.074,8.148c-1.176,1.008-3.948,4.284-5.04,6.468
		l16.128,11.76l-19.992-0.084c-0.168,2.352-0.252,5.712,0.336,8.232l24.444-6.636L242.074,8.148z M269.542,0l-6.132,18.984
		L257.278,0c-2.268,0.504-5.46,1.512-7.728,2.856l13.86,21.168l13.86-21.168C276.01,2.016,271.978,0.42,269.542,0 M203.183,31.916
		c-0.756,0-1.428-0.084-2.184-0.252v2.688c0.924,0.168,1.848,0.252,2.772,0.252c10.08,0,19.32-6.3,19.32-18.06
		c0-8.736-4.872-14.616-16.884-14.616c-3.528,0-7.644,0.504-11.424,0.504h-9.996v2.94h1.596c3.864,0,5.04,1.092,5.04,7.728v35.7
		c0,5.376-1.176,6.132-6.048,6.132h-0.588v2.94h23.352v-3.696c-0.924,0.252-2.1,0.42-3.108,0.42c-4.872,0-6.888-0.756-6.888-5.796
		V5.624c1.68-0.252,3.864-0.588,5.208-0.588c8.652,0,13.272,5.628,13.272,12.6C216.623,26.792,210.659,31.916,203.183,31.916
		 M170.677,55.268c-1.848,0-3.108-0.504-3.948-1.596c-1.26-1.596-1.764-3.864-2.268-7.56l-4.872-44.184h-2.016
		c-1.596,3.612-14.532,33.264-18.984,43.26l-21.168-43.26h-2.016l-5.964,47.04c-0.672,5.712-2.016,5.964-5.712,5.964h-1.26v2.94
		h17.556v-2.94h-0.84c-2.772,0-3.528-0.42-4.032-0.924c-0.504-0.504-1.428-1.26-1.008-4.956l3.696-30.828l18.396,37.548h1.848
		l16.716-37.548l3.948,37.464c0.252,2.184,1.26,2.856,5.964,2.856c3.696,0,6.468-0.252,8.316-0.672v-2.94
		C172.525,55.1,171.601,55.268,170.677,55.268 M90.541,46.028h-2.268c0,6.552-3.78,7.98-11.256,7.98h-5.46v-23.52
		c3.444,0,8.064,0.084,9.912,0.252c2.268,0.168,2.772,1.176,2.772,2.604c0,0.84-0.168,1.764-0.336,2.352h2.268
		c0.42-1.764,0.756-3.78,0.756-5.796c0-1.764-0.42-3.108-0.756-3.528c-2.1,0.252-6.552,0.588-13.104,0.588h-1.512V6.296
		c3.696,0,8.988,0.084,10.752,0.252c2.268,0.168,2.94,1.092,2.94,2.688c0,1.092-0.504,3.108-0.756,4.2h2.436
		c0.672-2.1,1.344-4.956,1.344-7.896c0-1.764-0.42-3.108-0.756-3.528c-2.1,0.252-6.552,0.42-13.104,0.42H58.201v2.94h1.596
		c3.864,0,5.04,1.092,5.04,7.728v35.7c0,5.376-1.176,6.132-6.048,6.132h-0.588v2.94h26.292c4.284,0,6.216-0.588,6.216-7.056
		C90.709,50.06,90.625,47.204,90.541,46.028"/>
	<path class="st0" d="M324.854,100.405v-10.15c0-1.421,1.508-2.494,4.002-2.494h1.363v-2.32h-0.899
		c-2.436,0-3.799,1.334-4.321,2.755h-0.145v-2.755h-2.32v14.964H324.854z M314.472,82.483c0.986,0,1.421-0.522,1.421-1.334V80.83
		c0-0.812-0.435-1.334-1.421-1.334s-1.421,0.522-1.421,1.334v0.319C313.051,81.961,313.486,82.483,314.472,82.483 M309.078,82.483
		c0.986,0,1.421-0.522,1.421-1.334V80.83c0-0.812-0.435-1.334-1.421-1.334c-0.985,0-1.421,0.522-1.421,1.334v0.319
		C307.657,81.961,308.092,82.483,309.078,82.483 M315.284,100.405h2.32V85.441h-2.32v10.353c0,1.972-1.798,2.871-3.625,2.871
		c-2.232,0-3.422-1.363-3.422-4.031v-9.193h-2.319v9.599c0,3.625,1.972,5.713,5.046,5.713c2.494,0,3.625-1.363,4.205-2.784h0.115
		V100.405z M297.478,100.405h2.32V87.471h3.219v-2.03h-3.219v-4.466h3.219v-2.03h-2.262c-2.204,0-3.277,1.421-3.277,3.48v3.016
		h-2.436v2.03h2.436V100.405z M279.18,98.665c-2.117,0-3.857-1.102-3.857-3.045v-5.568c0-1.653,1.74-2.871,3.857-2.871
		c2.609,0,4.233,1.798,4.233,4.466v2.552C283.414,96.867,281.79,98.665,279.18,98.665 M273.003,100.405h2.32v-2.436h0.116
		c0.899,1.856,2.32,2.784,4.379,2.784c3.741,0,6.09-3.045,6.09-7.83s-2.349-7.83-6.09-7.83c-2.059,0-3.596,0.899-4.379,2.784h-0.116
		v-8.932h-2.32V100.405z M265.753,100.405h2.32V85.441h-2.32v10.353c0,1.972-1.798,2.871-3.625,2.871
		c-2.233,0-3.422-1.363-3.422-4.031v-9.193h-2.32v9.599c0,3.625,1.972,5.713,5.046,5.713c2.494,0,3.625-1.363,4.205-2.784h0.116
		V100.405z M248.933,100.405h2.436V80.163h-2.436v8.932h-10.237v-8.932h-2.436v20.242h2.436v-9.164h10.237V100.405z M231.563,90.342
		h-7.569v2.494h7.569V90.342z M210.306,100.405V90.023c0-1.914,1.798-2.842,3.654-2.842c2.233,0,3.393,1.363,3.393,4.031v9.193h2.32
		v-9.599c0-3.625-1.943-5.713-5.017-5.713c-2.233,0-3.509,1.102-4.234,2.784h-0.116v-2.436h-2.32v14.964H210.306z M197.691,87.036
		c2.378,0,3.973,1.769,3.973,4.408v0.319h-8.265v-0.203C193.399,88.95,195.168,87.036,197.691,87.036 M197.691,100.753
		c2.813,0,4.959-1.392,5.916-3.422l-1.653-1.189c-0.783,1.653-2.233,2.581-4.118,2.581c-2.784,0-4.437-1.943-4.437-4.524v-0.696
		h10.759v-1.102c0-4.234-2.465-7.308-6.467-7.308c-4.06,0-6.728,3.074-6.728,7.83S193.631,100.753,197.691,100.753 M188.208,100.405
		v-2.03h-3.045V87.471h3.277v-2.03h-3.277v-4.147h-2.088v2.784c0,1.015-0.319,1.363-1.305,1.363h-1.392v2.03h2.465V97.94
		c0,1.45,0.87,2.465,2.465,2.465H188.208z M170.721,98.781c-1.798,0-2.958-0.841-2.958-2.32v-0.609c0-1.45,1.189-2.262,3.828-2.262
		h3.074v2.465C174.665,97.592,173.012,98.781,170.721,98.781 M178.696,100.405v-2.03h-1.711v-8.236c0-3.161-2.146-5.046-5.742-5.046
		c-2.697,0-4.495,1.334-5.307,2.929l1.392,1.305c0.812-1.363,2.001-2.233,3.799-2.233c2.378,0,3.538,1.16,3.538,3.277v1.479h-2.958
		c-4.35,0-6.38,1.566-6.38,4.379c0,2.784,1.856,4.524,5.017,4.524c2.088,0,3.683-0.957,4.321-2.784h0.145
		c0.174,1.392,0.87,2.436,2.581,2.436H178.696z M155.41,98.665c-2.61,0-4.234-1.798-4.234-4.466v-2.552
		c0-2.668,1.624-4.466,4.234-4.466c2.117,0,3.857,1.218,3.857,2.871v5.568C159.267,97.563,157.527,98.665,155.41,98.665
		 M159.267,100.405h2.32v-21.46h-2.32v8.932h-0.116c-0.783-1.885-2.32-2.784-4.379-2.784c-3.741,0-6.09,3.045-6.09,7.83
		s2.349,7.83,6.09,7.83c2.059,0,3.48-0.928,4.379-2.784h0.116V100.405z M140.069,100.753c3.422,0,5.539-1.769,5.539-4.669
		c0-2.262-1.276-3.712-4.582-4.205l-1.16-0.174c-1.856-0.29-2.871-0.87-2.871-2.32c0-1.421,1.015-2.32,2.929-2.32
		c1.914,0,3.19,0.899,3.857,1.827l1.537-1.392c-1.218-1.508-2.813-2.407-5.22-2.407c-3.045,0-5.336,1.45-5.336,4.408
		c0,2.784,2.059,3.915,4.814,4.321l1.189,0.174c1.972,0.29,2.61,1.189,2.61,2.349c0,1.537-1.16,2.436-3.132,2.436
		c-1.885,0-3.277-0.841-4.437-2.291l-1.653,1.334C135.487,99.593,137.314,100.753,140.069,100.753 M125.511,93.562
		c-1.972,0-3.219-0.928-3.219-2.9v-0.812c0-1.972,1.247-2.9,3.219-2.9c1.972,0,3.219,0.928,3.219,2.9v0.812
		C128.73,92.633,127.483,93.562,125.511,93.562 M130.702,102.232c0,1.624-1.508,2.436-4.089,2.436h-2.146
		c-2.349,0-3.248-1.072-3.248-2.378c0-0.928,0.435-1.595,1.392-2.03h4.988C129.919,100.26,130.702,101.043,130.702,102.232
		 M132.877,102.058c0-2.465-1.595-3.973-5.307-3.973h-3.19c-1.363,0-2.291-0.232-2.291-1.131c0-0.928,0.986-1.421,1.972-1.682
		c0.435,0.087,0.957,0.145,1.45,0.145c3.422,0,5.655-2.117,5.655-5.162c0-1.595-0.638-2.929-1.711-3.857v-0.957h2.842v-2.03h-2.233
		c-1.247,0-1.74,0.841-1.74,2.001v0.261c-0.812-0.377-1.769-0.58-2.842-0.58c-3.393,0-5.626,2.117-5.626,5.162
		c0,2.088,1.044,3.741,2.813,4.582v0.116c-1.508,0.377-2.581,1.102-2.581,2.61c0,1.015,0.493,1.682,1.334,2.088v0.319
		c-1.479,0.406-2.378,1.276-2.378,2.9c0,2.35,1.914,3.684,6.583,3.684C130.441,106.554,132.877,105.132,132.877,102.058
		 M106.11,100.405V90.023c0-1.914,1.798-2.842,3.654-2.842c2.233,0,3.393,1.363,3.393,4.031v9.193h2.32v-9.599
		c0-3.625-1.943-5.713-5.017-5.713c-2.233,0-3.509,1.102-4.234,2.784h-0.116v-2.436h-2.32v14.964H106.11z M96.54,100.405h2.32
		V85.441h-2.32v10.353c0,1.972-1.798,2.871-3.625,2.871c-2.233,0-3.422-1.363-3.422-4.031v-9.193h-2.32v9.599
		c0,3.625,1.972,5.713,5.046,5.713c2.494,0,3.625-1.363,4.205-2.784h0.116V100.405z M70.846,100.405h2.32V90.023
		c0-1.914,1.798-2.842,3.654-2.842c2.233,0,3.393,1.363,3.393,4.031v9.193h2.32v-9.599c0-3.625-1.943-5.713-5.017-5.713
		c-2.233,0-3.509,1.102-4.234,2.784h-0.116v-8.932h-2.32V100.405z M61.828,100.753c2.842,0,4.785-1.392,5.742-3.538l-1.682-1.131
		c-0.813,1.711-2.175,2.61-4.06,2.61c-2.755,0-4.177-1.885-4.177-4.495v-2.552c0-2.61,1.422-4.495,4.177-4.495
		c1.827,0,3.103,0.899,3.654,2.436l1.942-0.986c-0.87-2.059-2.638-3.509-5.596-3.509c-4.205,0-6.671,3.045-6.671,7.83
		S57.623,100.753,61.828,100.753 M46.632,100.753c3.422,0,5.539-1.769,5.539-4.669c0-2.262-1.276-3.712-4.582-4.205l-1.16-0.174
		c-1.856-0.29-2.871-0.87-2.871-2.32c0-1.421,1.015-2.32,2.929-2.32c1.914,0,3.19,0.899,3.857,1.827l1.537-1.392
		c-1.218-1.508-2.813-2.407-5.22-2.407c-3.045,0-5.336,1.45-5.336,4.408c0,2.784,2.059,3.915,4.814,4.321l1.189,0.174
		c1.972,0.29,2.61,1.189,2.61,2.349c0,1.537-1.16,2.436-3.132,2.436c-1.885,0-3.277-0.841-4.437-2.291l-1.653,1.334
		C42.05,99.593,43.877,100.753,46.632,100.753 M33.814,100.405v-10.15c0-1.421,1.508-2.494,4.002-2.494h1.363v-2.32H38.28
		c-2.436,0-3.799,1.334-4.321,2.755h-0.145v-2.755h-2.32v14.964H33.814z M20.909,98.694c-2.494,0-4.263-1.537-4.263-4.698V91.85
		c0-3.161,1.769-4.698,4.263-4.698c2.494,0,4.263,1.537,4.263,4.698v2.146C25.172,97.157,23.403,98.694,20.909,98.694
		 M20.909,100.753c4.002,0,6.757-3.074,6.757-7.83s-2.755-7.83-6.757-7.83s-6.757,3.074-6.757,7.83S16.907,100.753,20.909,100.753
		 M2.436,100.405v-9.164h8.787v-2.146H2.436v-6.786h9.628v-2.146H0v20.242H2.436z"/>
	<path class="st0" d="M459.682,127.005c2.378,0,3.973,1.769,3.973,4.408v0.318h-8.265v-0.203
		C455.39,128.919,457.159,127.005,459.682,127.005 M459.682,140.722c2.812,0,4.959-1.392,5.916-3.422l-1.653-1.189
		c-0.783,1.653-2.233,2.581-4.118,2.581c-2.784,0-4.437-1.942-4.437-4.523v-0.696h10.759v-1.102c0-4.234-2.465-7.309-6.467-7.309
		c-4.061,0-6.729,3.074-6.729,7.83S455.622,140.722,459.682,140.722 M450.199,140.374v-2.03h-3.045v-10.904h3.277v-2.029h-3.277
		v-4.147h-2.088v2.784c0,1.015-0.319,1.363-1.306,1.363h-1.392v2.029h2.465v10.47c0,1.449,0.87,2.465,2.465,2.465H450.199z
		 M427.521,140.374h2.319v-10.382c0-1.914,1.799-2.843,3.654-2.843c2.233,0,3.394,1.363,3.394,4.031v9.193h2.319v-9.6
		c0-3.625-1.942-5.713-5.017-5.713c-2.233,0-3.509,1.103-4.234,2.784h-0.116v-8.932h-2.319V140.374z M418.501,140.722
		c2.843,0,4.785-1.392,5.742-3.538l-1.682-1.131c-0.812,1.711-2.175,2.61-4.061,2.61c-2.755,0-4.176-1.886-4.176-4.495v-2.552
		c0-2.61,1.421-4.495,4.176-4.495c1.827,0,3.104,0.898,3.654,2.436l1.943-0.986c-0.87-2.059-2.64-3.509-5.598-3.509
		c-4.205,0-6.67,3.045-6.67,7.83S414.296,140.722,418.501,140.722 M405.684,140.374h2.319V125.41h-2.319V140.374z M406.844,121.9
		c0.985,0,1.421-0.521,1.421-1.305v-0.377c0-0.783-0.436-1.305-1.421-1.305c-0.986,0-1.422,0.521-1.422,1.305v0.377
		C405.422,121.379,405.858,121.9,406.844,121.9 M389.211,140.374h2.32v-10.382c0-1.914,1.798-2.843,3.654-2.843
		c2.232,0,3.393,1.363,3.393,4.031v9.193h2.32v-9.6c0-3.625-1.943-5.713-5.018-5.713c-2.232,0-3.509,1.103-4.233,2.784h-0.116
		v-8.932h-2.32V140.374z M380.194,140.722c2.842,0,4.785-1.392,5.742-3.538l-1.683-1.131c-0.812,1.711-2.175,2.61-4.06,2.61
		c-2.755,0-4.176-1.886-4.176-4.495v-2.552c0-2.61,1.421-4.495,4.176-4.495c1.827,0,3.103,0.898,3.654,2.436l1.942-0.986
		c-0.87-2.059-2.639-3.509-5.597-3.509c-4.205,0-6.67,3.045-6.67,7.83S375.989,140.722,380.194,140.722 M364.998,140.722
		c3.422,0,5.539-1.769,5.539-4.669c0-2.262-1.276-3.712-4.582-4.205l-1.16-0.174c-1.855-0.29-2.871-0.87-2.871-2.32
		c0-1.421,1.016-2.319,2.93-2.319s3.189,0.898,3.856,1.826l1.537-1.392c-1.218-1.508-2.812-2.407-5.22-2.407
		c-3.045,0-5.336,1.45-5.336,4.408c0,2.784,2.059,3.915,4.813,4.321l1.189,0.174c1.972,0.29,2.61,1.188,2.61,2.349
		c0,1.537-1.16,2.437-3.133,2.437c-1.885,0-3.276-0.841-4.437-2.291l-1.653,1.334C360.416,139.562,362.243,140.722,364.998,140.722
		 M350.208,127.005c2.378,0,3.974,1.769,3.974,4.408v0.318h-8.266v-0.203C345.916,128.919,347.685,127.005,350.208,127.005
		 M350.208,140.722c2.813,0,4.959-1.392,5.916-3.422l-1.652-1.189c-0.783,1.653-2.233,2.581-4.118,2.581
		c-2.784,0-4.438-1.942-4.438-4.523v-0.696h10.759v-1.102c0-4.234-2.465-7.309-6.467-7.309c-4.06,0-6.728,3.074-6.728,7.83
		S346.148,140.722,350.208,140.722 M334.693,133.529c-1.972,0-3.219-0.928-3.219-2.899v-0.812c0-1.972,1.247-2.899,3.219-2.899
		s3.219,0.928,3.219,2.899v0.812C337.912,132.602,336.665,133.529,334.693,133.529 M339.883,142.201
		c0,1.624-1.508,2.436-4.089,2.436h-2.146c-2.35,0-3.248-1.073-3.248-2.378c0-0.928,0.435-1.595,1.392-2.03h4.988
		C339.101,140.229,339.883,141.012,339.883,142.201 M342.059,142.026c0-2.465-1.596-3.973-5.308-3.973h-3.189
		c-1.363,0-2.291-0.231-2.291-1.131c0-0.928,0.985-1.421,1.972-1.682c0.436,0.087,0.957,0.145,1.45,0.145
		c3.422,0,5.655-2.117,5.655-5.162c0-1.595-0.639-2.929-1.711-3.856v-0.957h2.842v-2.03h-2.233c-1.247,0-1.74,0.841-1.74,2.001
		v0.261c-0.812-0.377-1.769-0.58-2.842-0.58c-3.393,0-5.626,2.117-5.626,5.162c0,2.088,1.044,3.741,2.813,4.582v0.116
		c-1.509,0.377-2.581,1.102-2.581,2.61c0,1.015,0.493,1.682,1.334,2.088v0.318c-1.479,0.406-2.378,1.276-2.378,2.9
		c0,2.349,1.914,3.683,6.583,3.683C339.623,146.521,342.059,145.101,342.059,142.026 M320.106,140.722
		c3.422,0,5.539-1.769,5.539-4.669c0-2.262-1.276-3.712-4.582-4.205l-1.16-0.174c-1.856-0.29-2.871-0.87-2.871-2.32
		c0-1.421,1.015-2.319,2.929-2.319s3.19,0.898,3.857,1.826l1.537-1.392c-1.218-1.508-2.813-2.407-5.221-2.407
		c-3.045,0-5.336,1.45-5.336,4.408c0,2.784,2.06,3.915,4.814,4.321l1.188,0.174c1.973,0.29,2.61,1.188,2.61,2.349
		c0,1.537-1.16,2.437-3.132,2.437c-1.885,0-3.277-0.841-4.438-2.291l-1.652,1.334C315.524,139.562,317.351,140.722,320.106,140.722
		 M311.638,140.374v-2.03h-3.046v-10.904h3.277v-2.029h-3.277v-4.147h-2.088v2.784c0,1.015-0.318,1.363-1.305,1.363h-1.392v2.029
		h2.465v10.47c0,1.449,0.87,2.465,2.465,2.465H311.638z M296.848,140.374h2.319v-12.935h3.22v-2.029h-3.22v-4.467h3.22v-2.029
		h-2.263c-2.204,0-3.276,1.421-3.276,3.479v3.017h-2.437v2.029h2.437V140.374z M284.754,138.75c-1.798,0-2.958-0.841-2.958-2.32
		v-0.609c0-1.449,1.189-2.262,3.828-2.262h3.074v2.465C288.699,137.561,287.045,138.75,284.754,138.75 M292.73,140.374v-2.03h-1.711
		v-8.236c0-3.16-2.146-5.046-5.742-5.046c-2.697,0-4.495,1.334-5.307,2.93l1.392,1.305c0.812-1.363,2.001-2.233,3.799-2.233
		c2.378,0,3.538,1.16,3.538,3.277v1.479h-2.958c-4.35,0-6.38,1.566-6.38,4.38c0,2.783,1.855,4.523,5.017,4.523
		c2.088,0,3.684-0.957,4.321-2.784h0.146c0.174,1.393,0.869,2.437,2.58,2.437H292.73z M264.078,140.374h2.32v-10.382
		c0-1.914,1.798-2.843,3.654-2.843c2.233,0,3.393,1.363,3.393,4.031v9.193h2.32v-9.6c0-3.625-1.943-5.713-5.017-5.713
		c-2.233,0-3.509,1.103-4.234,2.784h-0.116v-8.932h-2.32V140.374z M255.06,140.722c2.841,0,4.784-1.392,5.741-3.538l-1.681-1.131
		c-0.813,1.711-2.176,2.61-4.06,2.61c-2.756,0-4.177-1.886-4.177-4.495v-2.552c0-2.61,1.421-4.495,4.177-4.495
		c1.826,0,3.102,0.898,3.653,2.436l1.943-0.986c-0.87-2.059-2.639-3.509-5.596-3.509c-4.206,0-6.671,3.045-6.671,7.83
		S250.854,140.722,255.06,140.722 M239.864,140.722c3.422,0,5.538-1.769,5.538-4.669c0-2.262-1.276-3.712-4.582-4.205l-1.159-0.174
		c-1.857-0.29-2.872-0.87-2.872-2.32c0-1.421,1.015-2.319,2.929-2.319c1.915,0,3.191,0.898,3.857,1.826l1.537-1.392
		c-1.218-1.508-2.813-2.407-5.219-2.407c-3.046,0-5.336,1.45-5.336,4.408c0,2.784,2.059,3.915,4.813,4.321l1.19,0.174
		c1.971,0.29,2.609,1.188,2.609,2.349c0,1.537-1.159,2.437-3.132,2.437c-1.885,0-3.277-0.841-4.436-2.291l-1.653,1.334
		C235.281,139.562,237.109,140.722,239.864,140.722 M231.396,140.374v-2.03h-3.045v-10.904h3.277v-2.029h-3.277v-4.147h-2.088v2.784
		c0,1.015-0.319,1.363-1.305,1.363h-1.392v2.029h2.465v10.47c0,1.449,0.87,2.465,2.465,2.465H231.396z M216.75,140.374v-10.15
		c0-1.421,1.508-2.494,4.002-2.494h1.363v-2.319h-0.899c-2.436,0-3.799,1.334-4.321,2.755h-0.146v-2.755h-2.32v14.964H216.75z
		 M207.181,140.374h2.32V125.41h-2.32V140.374z M208.341,121.9c0.986,0,1.421-0.521,1.421-1.305v-0.377
		c0-0.783-0.435-1.305-1.421-1.305s-1.421,0.521-1.421,1.305v0.377C206.92,121.379,207.355,121.9,208.341,121.9 M187.083,140.374
		l2.697-10.092l1.914-7.425h0.058l1.856,7.425l2.639,10.092h2.697l5.191-20.242h-2.494l-2.291,9.744l-1.74,7.54h-0.087l-1.885-7.54
		l-2.465-9.744h-2.784l-2.552,9.744l-1.885,7.568h-0.058l-1.682-7.568l-2.175-9.744h-2.581l4.93,20.242H187.083z M160.405,138.691
		c-2.436,0-4.002-1.334-4.002-3.45v-0.436c0-2.262,1.392-3.219,2.958-4.06l5.423,5.857
		C163.769,137.88,162.348,138.691,160.405,138.691 M160.985,121.727c1.479,0,2.755,0.899,2.755,2.465v0.349
		c0,1.595-1.827,2.899-3.654,3.886c-1.16-1.305-1.943-2.465-1.943-3.625v-0.348C158.143,122.916,159.332,121.727,160.985,121.727
		 M168.264,140.374h3.016l-3.944-4.205c0.638-1.276,1.131-2.784,1.392-4.466h2.059v-1.973h-3.944
		c-0.087,1.711-0.377,3.422-0.957,4.901l-4.553-4.901c2.552-1.421,4.64-2.929,4.64-5.597c0-2.581-2.001-4.35-4.872-4.35
		c-3.161,0-5.249,2.146-5.249,4.872c0,1.798,0.899,3.306,2.291,4.756c-2.088,1.131-4.147,2.696-4.147,5.713
		c0,3.103,2.204,5.597,6.206,5.597c3.277,0,5.075-1.711,5.887-2.726L168.264,140.374z M143.063,130.311h-7.569v2.494h7.569V130.311z
		 M132.885,140.374v-2.03h-2.204v-19.43h-2.32v19.053c0,1.392,0.87,2.407,2.465,2.407H132.885z M117.08,138.75
		c-1.798,0-2.958-0.841-2.958-2.32v-0.609c0-1.449,1.189-2.262,3.828-2.262h3.074v2.465
		C121.024,137.561,119.371,138.75,117.08,138.75 M125.055,140.374v-2.03h-1.711v-8.236c0-3.16-2.146-5.046-5.742-5.046
		c-2.697,0-4.495,1.334-5.307,2.93l1.392,1.305c0.812-1.363,2.001-2.233,3.799-2.233c2.378,0,3.538,1.16,3.538,3.277v1.479h-2.958
		c-4.35,0-6.38,1.566-6.38,4.38c0,2.783,1.856,4.523,5.017,4.523c2.088,0,3.683-0.957,4.321-2.784h0.145
		c0.174,1.393,0.87,2.437,2.581,2.437H125.055z M105.625,140.374h2.32V125.41h-2.32V140.374z M106.785,121.9
		c0.986,0,1.421-0.521,1.421-1.305v-0.377c0-0.783-0.435-1.305-1.421-1.305s-1.421,0.521-1.421,1.305v0.377
		C105.364,121.379,105.799,121.9,106.785,121.9 M102.203,140.374v-2.03H93.3l8.671-11.194v-1.739H90.922v2.029h8.236l-8.497,10.991
		v1.943H102.203z M81.729,138.663c-2.494,0-4.263-1.537-4.263-4.698v-2.146c0-3.16,1.769-4.697,4.263-4.697
		c2.494,0,4.263,1.537,4.263,4.697v2.146C85.992,137.126,84.223,138.663,81.729,138.663 M81.729,140.722
		c4.002,0,6.757-3.074,6.757-7.83s-2.755-7.83-6.757-7.83c-4.002,0-6.757,3.074-6.757,7.83S77.727,140.722,81.729,140.722
		 M65.141,140.722c4.35,0,6.96-2.378,6.96-6.09c0-3.016-1.711-4.756-5.655-5.655l-1.653-0.377c-2.552-0.58-3.799-1.45-3.799-3.364
		c0-2.175,1.595-3.306,4.176-3.306c2.349,0,3.886,0.957,4.988,2.494l1.827-1.334c-1.508-2.146-3.654-3.306-6.699-3.306
		c-3.973,0-6.699,1.942-6.699,5.539c0,3.103,2.03,4.727,5.713,5.567l1.653,0.377c2.668,0.609,3.741,1.566,3.741,3.48
		c0,2.319-1.566,3.828-4.466,3.828c-2.349,0-4.031-1.016-5.452-2.9l-1.798,1.508C59.602,139.388,61.893,140.722,65.141,140.722"/>
</g>
</svg>
