<?xml version="1.0" encoding="UTF-8" standalone="no"?>
<svg xmlns:dc="http://purl.org/dc/elements/1.1/" xmlns:cc="http://creativecommons.org/ns#" xmlns:rdf="http://www.w3.org/1999/02/22-rdf-syntax-ns#" xmlns:svg="http://www.w3.org/2000/svg" xmlns="http://www.w3.org/2000/svg" xmlns:xlink="http://www.w3.org/1999/xlink" version="1.1" id="svg2808" xml:space="preserve" width="453.54398" height="199.89732" viewBox="0 0 453.54397 199.89732"><metadata id="metadata2814"><rdf:RDF><cc:Work rdf:about=""><dc:format>image/svg+xml</dc:format><dc:type rdf:resource="http://purl.org/dc/dcmitype/StillImage"/><dc:title/></cc:Work></rdf:RDF></metadata><defs id="defs2812"><clipPath clipPathUnits="userSpaceOnUse" id="clipPath2826"><path d="M 0,0 H 3401.58 V 1499.23 H 0 Z" id="path2824"/></clipPath><clipPath clipPathUnits="userSpaceOnUse" id="clipPath2836"><path d="M 2985.84,1287.59 V 199.059 h 226.78 V 1287.59 Z" id="path2834"/></clipPath><clipPath clipPathUnits="userSpaceOnUse" id="clipPath2842"><path d="M 2985.84,199.059 V 1287.59 h 226.78 V 199.059 Z" id="path2840"/></clipPath><clipPath clipPathUnits="userSpaceOnUse" id="clipPath2854"><path d="M 0,0 H 3401.58 V 1499.23 H 0 Z" id="path2852"/></clipPath><linearGradient xlink:href="#linearGradient4668" id="linearGradient4670" x1="291.1875" y1="-60" x2="314.625" y2="-60" gradientUnits="userSpaceOnUse" gradientTransform="matrix(6.1926664,0,0,0.55601951,-1775.4792,-379.59815)"/><linearGradient id="linearGradient4668"><stop id="stop4666" offset="0" style="stop-color:#9e9c9c;stop-opacity:1"/><stop id="stop4664" offset="1" style="stop-color:#ffffff;stop-opacity:1;"/></linearGradient></defs><g transform="matrix(0.13333333,0,0,-0.13333333,0,199.89733)" id="g2820"><g id="g2822" clip-path="url(#clipPath2826)"><path d="M 0,1499.23 V 0 H 3401.58 V 1499.23 H 0 v 0" style="fill:#597cc7;fill-opacity:1;fill-rule:nonzero;stroke:none" id="path2828"/></g></g><g transform="matrix(0.13333333,0,0,-0.13333333,0,199.89733)" id="g2848"><g id="g2850" clip-path="url(#clipPath2854)"><path d="m 1033.21,431.84 c 0,-48.59 6.28,-84.68 30.12,-97.18 3.77,-5.551 3.77,-16.66 -1.25,-20.82 -13.8,0 -36.4,-4.16 -60.25,-11.102 C 924,283.301 829.848,265.25 758.297,265.25 c -150.645,0 -292.5,44.43 -386.652,152.711 -74.063,84.676 -110.469,201.289 -110.469,317.898 0,116.621 36.406,236.008 115.496,326.241 89.125,104.12 225.957,163.81 400.453,163.81 58.992,0 123.016,-11.1 166.953,-20.82 28.875,-6.93 65.282,-12.49 80.342,-12.49 1.26,-41.65 10.05,-112.45 16.33,-220.733 -6.28,-13.887 -33.9,-15.273 -40.18,-2.773 -27.617,134.656 -116.746,201.286 -241.023,201.286 -220.938,0 -327.645,-176.294 -327.645,-412.302 0,-111.066 22.594,-230.449 90.383,-319.297 67.789,-88.851 168.219,-118 242.281,-118 60.262,0 96.661,11.11 111.727,31.93 7.531,12.5 11.301,37.488 11.301,87.461 v 49.976 c 0,98.563 -1.262,106.895 -85.364,122.168 l -45.195,8.321 c -8.789,9.726 -8.789,33.32 1.262,40.261 48.953,-2.773 109.207,-4.16 195.828,-4.16 56.495,0 99.175,1.387 153.155,4.16 12.55,-6.941 13.81,-30.535 2.51,-40.261 l -22.6,-4.16 c -46.44,-6.946 -53.98,-19.434 -53.98,-104.122 V 431.84" style="fill:#ffffff;fill-opacity:1;fill-rule:nonzero;stroke:none" id="path2856"/><path d="m 1418.12,516.523 c 0,-126.324 12.55,-177.695 121.77,-177.695 86.61,0 163.19,62.473 163.19,186.027 0,142.989 -87.88,227.665 -227.22,227.665 -55.23,0 -57.74,-8.329 -57.74,-36.094 z m 0,326.243 c 0,-36.106 3.76,-37.493 53.97,-37.493 118,0 171.99,51.368 171.99,176.313 0,122.164 -81.6,170.754 -159.43,170.754 -62.77,0 -66.53,-2.78 -66.53,-58.3 z M 1272.5,995.469 c 0,133.271 -1.25,149.931 -60.26,156.871 l -32.64,4.16 c -8.78,9.72 -8.78,31.93 1.25,38.88 56.5,5.55 148.14,12.49 286.23,12.49 105.44,0 189.55,-11.11 246.05,-47.2 57.73,-37.49 87.87,-93.01 87.87,-180.475 0,-81.902 -53.99,-144.375 -141.85,-176.308 -5.03,-1.387 -7.54,-5.555 -7.54,-8.328 0,-2.774 2.51,-5.547 10.05,-8.332 95.39,-16.661 202.11,-84.676 202.11,-241.551 0,-63.856 -18.85,-133.278 -76.58,-184.637 -59.01,-54.141 -141.85,-77.738 -284.97,-77.738 -55.23,0 -107.96,4.16 -155.66,4.16 -55.24,0 -114.23,-1.383 -169.47,-4.16 -10.04,5.551 -11.29,30.539 -2.51,40.258 l 27.61,4.171 c 59.01,8.321 70.31,12.489 70.31,159.641 v 508.098" style="fill:#ffffff;fill-opacity:1;fill-rule:nonzero;stroke:none" id="path2858"/><path d="M 2437.85,631.75 C 2387.64,505.422 2328.63,342.988 2307.3,272.191 c -2.51,-4.16 -12.55,-6.941 -21.34,-6.941 -8.79,0 -17.58,2.781 -23.85,6.941 -15.08,55.539 -35.16,123.547 -57.75,181.86 l -219.69,584.459 c -35.14,93.01 -46.45,112.44 -96.66,123.54 l -30.12,6.95 c -8.79,9.71 -8.79,34.7 3.77,38.87 48.95,-2.78 102.93,-4.17 151.89,-4.17 56.49,0 99.16,1.39 165.71,4.17 11.29,-8.33 12.54,-30.55 1.25,-40.26 l -31.39,-8.33 c -27.62,-6.94 -37.66,-13.88 -37.66,-24.99 0,-12.49 10.04,-43.04 61.51,-184.63 l 90.39,-247.109 c 22.6,-62.473 56.48,-144.383 69.04,-176.309 67.8,174.922 143.11,366.492 209.65,555.298 20.08,55.53 16.31,66.64 -21.35,76.35 l -36.4,9.72 c -8.79,11.1 -7.54,33.32 2.52,40.26 51.46,-2.78 94.14,-4.17 134.31,-4.17 45.2,0 86.62,1.39 121.76,4.17 10.06,-6.94 8.79,-29.16 2.52,-40.26 l -31.39,-6.94 c -28.86,-6.95 -56.48,-16.67 -77.83,-56.92 -35.14,-66.64 -71.54,-159.648 -128.05,-299.863 L 2437.85,631.75" style="fill:#ffffff;fill-opacity:1;fill-rule:nonzero;stroke:none" id="path2860"/></g></g><rect style="opacity:1;fill:url(#linearGradient4670);fill-opacity:1;stroke:none;stroke-width:6.95849133;stroke-linecap:butt;stroke-miterlimit:0.5;stroke-dasharray:none;stroke-opacity:1" id="rect4662" width="145.14062" height="30.233562" x="27.748167" y="-428.07611" transform="rotate(90)"/></svg>