<?xml version="1.0" encoding="UTF-8" standalone="no"?>
<svg
   xmlns:dc="http://purl.org/dc/elements/1.1/"
   xmlns:cc="http://creativecommons.org/ns#"
   xmlns:rdf="http://www.w3.org/1999/02/22-rdf-syntax-ns#"
   xmlns:svg="http://www.w3.org/2000/svg"
   xmlns="http://www.w3.org/2000/svg"
   xmlns:sodipodi="http://sodipodi.sourceforge.net/DTD/sodipodi-0.dtd"
   xmlns:inkscape="http://www.inkscape.org/namespaces/inkscape"
   width="1312.082"
   height="288.35938"
   viewBox="0 0 1312.082 288.35938"
   version="1.1"
   id="svg10"
   sodipodi:docname="web_footer-sbb-full-cut.svg"
   inkscape:version="0.92.4 (5da689c313, 2019-01-14)">
  <metadata
     id="metadata16">
    <rdf:RDF>
      <cc:Work
         rdf:about="">
        <dc:format>image/svg+xml</dc:format>
        <dc:type
           rdf:resource="http://purl.org/dc/dcmitype/StillImage" />
        <dc:title></dc:title>
      </cc:Work>
    </rdf:RDF>
  </metadata>
  <defs
     id="defs14" />
  <sodipodi:namedview
     pagecolor="#ffffff"
     bordercolor="#666666"
     borderopacity="1"
     objecttolerance="10"
     gridtolerance="10"
     guidetolerance="10"
     inkscape:pageopacity="0"
     inkscape:pageshadow="2"
     inkscape:window-width="1920"
     inkscape:window-height="1017"
     id="namedview12"
     showgrid="false"
     inkscape:zoom="0.23302264"
     inkscape:cx="656.51172"
     inkscape:cy="142.70312"
     inkscape:window-x="-8"
     inkscape:window-y="-8"
     inkscape:window-maximized="1"
     inkscape:current-layer="svg10" />
  <path
     d="M 0,4.207031 V 208.85156 c 21.621099,-26.45703 40.269529,-37.46484 48.101559,-40.9414 0.72657,-0.32422 0.75782,-0.82422 0.72266,-1.03907 -0.0625,-0.375 -0.42578,-0.7539 -1.37109,-0.74218 -3.85157,0.0508 -11.8086,2.21093 -17.01172,4.13281 -1.21094,0.44531 -1.40235,-0.35938 -0.91016,-1.28125 1.11328,-2.08985 6.20703,-6.87891 21.42188,-13.02344 25.12109,-10.14062 51.085931,-9.03516 62.972651,-3.06641 5.26563,2.64844 7.47656,7.91797 8.11719,9.81641 0.082,0.23828 -0.0273,0.375 -0.21094,0.37109 -18.44922,-0.20312 -26.761721,0.73438 -32.265621,2.41407 -1.64453,0.5 -1.80078,1.72265 -0.35938,2.82031 2.60547,1.97656 10.69531,4.04687 13.925781,4.58594 0.96485,0.16015 1.48828,-0.16016 2.08985,-0.84375 0.6875,-0.78907 1.5664,-1.91797 2.33593,-2.66797 0.60157,-0.58594 0.90625,-0.64844 2.05079,-0.73047 1.71093,-0.125 5.64843,-0.18359 9.12109,-0.125 16.16016,0.28906 34.19531,4.28516 34.19531,27.17187 0,8.22657 -3.375,16.26954 -4.96094,18.72657 -1.04296,1.61718 -2.69531,1.54297 -2.60546,-0.875 0.42968,-11.23438 -1.37891,-15.85157 -19.16016,-15.85157 -8.99219,0 -23.19141,1.30079 -29.566411,4.29297 -2.35937,1.10938 -2.58984,3.14453 -0.20312,2.9336 3.54297,-0.30469 17.425781,-1.26172 27.261721,-1.26172 6.5039,0 11.62109,0.65234 13.46875,3.24609 0.44531,0.625 0.53515,1.80078 -1.01953,1.57422 -0.625,-0.0898 -2.27344,-0.27734 -4.57032,-0.27734 -20.46484,0 -40.472651,12.0664 -40.472651,32.96484 0,33.20703 48.875001,46.49609 110.003901,46.49609 49.22266,0 82.36328,-10.5664 82.36328,-10.5664 L 283.46084,4.207031 H 0"
     id="path2"
     inkscape:connector-curvature="0"
     style="fill:#374571;fill-opacity:1;fill-rule:nonzero" />
  <path
     d="m 1291.832,266.08594 19.8008,-28.4336 v -5.16406 h -30.5313 l -0.2187,6.14063 h 22.5 l 0.07,0.14843 -3.5195,4.80078 -19.8828,28.50782 v 5.09375 h 31.8007 l 0.2305,-6.14063 h -23.6992 l -0.082,-0.22656 z m -31.3594,-28.0586 H 1271.5 v -5.53906 h -11.0274 V 220.9375 l -5.539,0.59375 -1.3516,10.95703 h -6.4492 v 5.53906 h 6.2305 v 27.07422 c 0,7.8086 3.9687,12.07813 11.6093,12.07813 2.3985,0 4.8789,-0.44922 6.2305,-1.125 l -0.4531,-5.37891 c -0.8985,0.36719 -2.4766,0.58594 -3.75,0.58594 -4.0469,0 -6.5274,-1.83203 -6.5274,-6.38281 z m -24.4414,-16.86718 c 0,-2.47266 -1.5,-3.82422 -4.5781,-3.82422 -3.0703,0 -4.5703,1.35156 -4.5703,3.82422 0,2.84375 1.5,3.8164 4.5703,3.8164 3.0781,0 4.5781,-1.19922 4.5781,-3.8164 M 1192.2226,244.5 c 0,-3.59766 3.3789,-5.87109 8.711,-5.87109 3.5976,0 7.8789,0.80468 11.6172,2.34765 l 0.6015,-5.9414 c -3.5898,-1.64844 -7.7187,-2.54688 -12.0703,-2.54688 -10.2812,0 -15.6015,4.94141 -15.6015,12.375 0,14.75 22.8828,10.12891 22.8828,20.03516 0,4.10937 -2.7032,7.1875 -9.2305,7.1875 -4.2813,0 -9.3828,-1.32032 -12.75,-3.8125 l -0.9023,6.0625 c 3.4531,2.46875 8.4023,3.74218 13.7226,3.74218 11.0274,0 15.75,-5.61718 15.75,-13.84375 0,-15.26171 -22.7305,-10.41796 -22.7305,-19.73437 m -15.9609,11.30469 c 0.078,-0.97266 0.1484,-2.32422 0.1484,-3.44532 0,-13.58984 -6.957,-19.87109 -17.6171,-19.87109 -12.3008,0 -18.4415,7.76563 -18.4415,21.14453 0,16.73047 6.0586,24.44531 20.7696,24.44531 5.4023,0 10.0508,-1.27343 13.8008,-3.29296 l -0.8321,-6 c -3.8164,1.8789 -7.6367,2.85156 -12.1367,2.85156 -9.6133,0 -13.9609,-4.05078 -14.3398,-15.83203 z m -6.3594,-4.86719 h -22.4414 c 0.4492,-8.34766 3.8321,-12.30859 11.4102,-12.30859 6.4492,0 10.8789,3.39453 11.0312,12.30859 m -38.4101,3.74609 v -0.004 c 0,-16.94922 -6.5899,-23.01563 -17.0196,-23.01563 -4.9492,0 -9.5312,1.64453 -12.75,5.01563 l -0.1601,-0.0742 0.078,-5.99219 v -13.125 l -7.0391,0.44922 v 59.24219 h 4.7188 l 1.1211,-4.65235 0.2305,-0.0742 c 2.7695,3.45313 7.4179,5.55079 12.9687,5.55079 11.332,0 17.8516,-6.51563 17.8516,-23.32032 m -7.1914,0.14844 c 0,13.87891 -4.6485,17.25391 -11.6289,17.25391 -5.4805,0 -9.2305,-2.54688 -11.0313,-5.47657 v -23.17968 c 2.332,-3.375 6.2305,-5.32813 10.9492,-5.32813 7.3633,0 11.711,3.15235 11.711,16.73047 m -40.8907,-14.5625 0.461,-7.18359 c -1.211,-0.375 -2.7813,-0.59766 -4.4297,-0.59766 -6.0703,0 -10.9492,3.74219 -13.7188,10.13672 h -0.1523 l -0.5977,-9.53906 -5.6914,0.375 v 43.71875 h 7.1094 v -22.25 c 0,-9.42969 5.6328,-15.25 12.6016,-15.25 1.5703,0 3.0703,0.14843 4.4179,0.58984 m -37.4179,22.21875 v -30 h -7.0391 v 29.84766 c 0,6.07812 -3.5312,9.15234 -10.2812,9.15234 -6.8985,0 -10.3516,-3.15234 -10.3516,-9.15234 v -29.84766 h -7.0391 v 30 c 0,9.82422 5.6094,15.51563 17.3203,15.51563 11.7696,0 17.3907,-5.61719 17.3907,-15.51563 m -55.17968,-24.46094 h 11.01948 v -5.53906 h -11.01948 v -11.55078 l -5.5508,0.59375 -1.3516,10.95703 h -6.4375 v 5.53906 h 6.2188 v 27.07422 c 0,7.8086 3.9687,12.07813 11.6211,12.07813 2.3984,0 4.87108,-0.44922 6.21868,-1.125 l -0.4492,-5.37891 c -0.8984,0.36719 -2.46868,0.58594 -3.74998,0.58594 -4.0508,0 -6.5195,-1.83203 -6.5195,-6.38281 z m -32.0899,39.15235 h 7.1094 v -59.61719 l -7.1094,0.44922 z m -14.7108,-14.69135 v -30 h -7.0391 v 29.84766 c 0,6.07812 -3.5312,9.15234 -10.2812,9.15234 -6.9102,0 -10.3594,-3.15234 -10.3594,-9.15234 v -29.84766 h -7.0391 v 30 c 0,9.82422 5.6172,15.51563 17.3204,15.51563 11.7773,0 17.3984,-5.61719 17.3984,-15.51563 m -42.8125,14.69141 -20.55078,-29.6211 19.42578,-26.62109 h -9.14844 l -17.25,23.77344 h -8.32422 V 220.9375 h -7.64453 v 56.24219 h 7.64453 v -25.95313 h 8.17188 l 18.07812,25.95313 z m -79.27344,-36.91016 0.44922,-7.18359 c -1.19922,-0.375 -2.77344,-0.59766 -4.42578,-0.59766 -6.07422,0 -10.94922,3.74219 -13.72266,10.13672 h -0.14843 l -0.60157,-9.53906 -5.6914,0.375 v 43.71875 h 7.11718 v -22.25 c 0,-9.42969 5.625,-15.25 12.59766,-15.25 1.57422,0 3.07422,0.14843 4.42578,0.58984 m -35.625,15.53516 c 0.0742,-0.97266 0.15235,-2.32422 0.15235,-3.44532 0,-13.58984 -6.96485,-19.87109 -17.6211,-19.87109 -12.30469,0 -18.44531,7.76563 -18.44531,21.14453 0,16.73047 6.06641,24.44531 20.76953,24.44531 5.40625,0 10.05078,-1.27343 13.79688,-3.29296 l -0.82422,-6 c -3.81641,1.8789 -7.64453,2.85156 -12.14453,2.85156 -9.60547,0 -13.95704,-4.05078 -14.33204,-15.83203 z M 779.9375,250.9375 H 757.5 c 0.45313,-8.34766 3.82813,-12.30859 11.40625,-12.30859 6.45313,0 10.87891,3.39453 11.03125,12.30859 m -47.32422,26.24219 h 7.03906 v -29.625 c 0,-10.19922 -5.32031,-15.89063 -15.07031,-15.89063 -4.72656,0 -9.30078,1.57031 -12.53125,4.94141 l -0.14844,-0.0742 0.0742,-5.99219 v -12.97656 l -7.03906,0.44531 v 59.17188 h 7.03906 v -33.82813 c 1.80078,-2.84765 5.85157,-5.09765 10.50782,-5.09765 6.90234,0 10.1289,3.30078 10.1289,9.30078 z m -62.18359,-22.29688 c 0,-11.32422 3.59765,-15.8789 13.27344,-15.8789 3.22656,0 6.44921,0.80859 9.07421,1.98437 l 0.45313,-6.32812 c -2.92578,-1.27344 -6.97656,-2.17188 -10.95313,-2.17188 -13.34375,0 -19.1914,7.61719 -19.1914,22.39453 0,16.09766 6.44531,23.26953 18.96875,23.26953 4.72265,0 8.92578,-1.27343 11.55078,-3.07031 l -0.52734,-5.79297 c -2.69922,1.61719 -6,2.5 -9.52344,2.5 -8.55078,0 -13.125,-4.55859 -13.125,-16.90625 M 631.87891,244.5 c 0,-3.59766 3.375,-5.87109 8.70312,-5.87109 3.60547,0 7.87891,0.80468 11.625,2.34765 l 0.60156,-5.9414 c -3.59765,-1.64844 -7.72265,-2.54688 -12.07421,-2.54688 -10.27735,0 -15.59375,4.94141 -15.59375,12.375 0,14.75 22.875,10.12891 22.875,20.03516 0,4.10937 -2.70313,7.1875 -9.23438,7.1875 -4.27734,0 -9.375,-1.32032 -12.74219,-3.8125 l -0.89843,6.0625 c 3.4414,2.46875 8.39062,3.74218 13.71875,3.74218 11.02734,0 15.74609,-5.61718 15.74609,-13.84375 0,-15.26171 -22.72656,-10.41796 -22.72656,-19.73437 m -19.57422,-23.33984 c 0,-2.47266 -1.5,-3.82422 -4.57031,-3.82422 -3.07032,0 -4.57032,1.35156 -4.57032,3.82422 0,2.84375 1.5,3.8164 4.57032,3.8164 3.07031,0 4.57031,-1.19922 4.57031,-3.8164 m -20.85156,41.8164 c 0,-12.1914 -16.49219,-14.1875 -16.49219,-18.03125 0,-3.10156 9.75,-6.87109 9.75,-14.33594 0,-5.92968 -5.55078,-10.64843 -13.57813,-10.64843 -11.25,0 -17.46875,6.73437 -17.46875,19.29687 v 49.10156 h 7.03907 v -49.76953 c 0,-8.34765 3.45312,-12.48828 10.28125,-12.48828 4.27734,0 6.97656,1.9961 6.97656,4.73047 0,5.98438 -10.57813,9.53125 -10.57813,15 0,6.94531 16.88282,8.20313 16.88282,17.36328 0,5.02735 -4.42969,7.46485 -10.65625,7.46485 -2.8125,0 -5.52344,-0.71094 -7.80469,-1.73829 l -0.44531,6.49219 c 2.85546,1.19531 6.41406,1.76172 9.44921,1.76172 9.98047,0 16.64454,-5.39062 16.64454,-14.19922 m -51.52344,-0.48828 v -30 h -7.03906 v 29.84766 c 0,6.07812 -3.52735,9.15234 -10.28125,9.15234 -6.90235,0 -10.35547,-3.15234 -10.35547,-9.15234 v -29.84766 h -7.03907 v 30 c 0,9.82422 5.61719,15.51563 17.32032,15.51563 11.77734,0 17.39453,-5.61719 17.39453,-15.51563 m -45.52344,-6.68359 c 0.0742,-0.97266 0.15234,-2.32422 0.15234,-3.44532 0,-13.58984 -6.96875,-19.87109 -17.62109,-19.87109 -12.30469,0 -18.44531,7.76563 -18.44531,21.14453 0,16.73047 6.0664,24.44531 20.76953,24.44531 5.40234,0 10.05469,-1.27343 13.79687,-3.29296 l -0.82421,-6 c -3.82032,1.8789 -7.64454,2.85156 -12.14844,2.85156 -9.60156,0 -13.95313,-4.05078 -14.32813,-15.83203 z m -6.36719,-4.86719 h -22.43359 c 0.45312,-8.34766 3.82812,-12.30859 11.40625,-12.30859 6.45312,0 10.87891,3.39453 11.02734,12.30859 m -36.59765,-10.66797 0.45312,-7.18359 c -1.20312,-0.375 -2.77734,-0.59766 -4.42578,-0.59766 -6.07422,0 -10.94922,3.74219 -13.72656,10.13672 h -0.14844 l -0.59766,-9.53906 -5.69531,0.375 v 43.71875 h 7.11719 v -22.25 c 0,-9.42969 5.625,-15.25 12.60156,-15.25 1.57422,0 3.07422,0.14843 4.42188,0.58984 m -35.17188,-1.71094 c 0,-12.22656 -5.84375,-17.62109 -19.64844,-17.62109 h -18.66796 v 56.24219 h 7.64062 v -21.07813 h 11.02734 c 13.95313,0 19.64844,-5.98828 19.64844,-17.54297 m -7.86719,0 c 0,8.62891 -3.82812,11.10547 -11.78125,11.10547 h -11.02734 v -22.0625 h 11.02734 c 8.17969,0 11.78125,2.77735 11.78125,10.95703 m 202.85157,-6.07031 -7.11328,0.36719 v 44.32422 h 7.11328 z m 623.71869,0 -7.1093,0.36719 v 44.32422 h 7.1093 v -44.69141"
     id="path4"
     inkscape:connector-curvature="0"
     style="fill:#231f20;fill-opacity:1;fill-rule:nonzero" />
  <path
     d="m 413.03125,124.52344 v -8.42969 h -34.0625 l -0.39062,10.07031 h 20.39062 l 0.0781,0.15235 -3.75,4.92578 -17.34375,23.67968 v 8.50782 h 35.46875 l 0.3125,-10.07032 H 392.0156 l -0.0781,-0.23437 3.75,-4.84375 z m 49.44922,-8.42969 h -12.10156 v 30.39062 c 0,4.84375 -2.5,7.10938 -7.81641,7.10938 -5.31641,0 -7.82031,-2.42188 -7.82031,-7.10938 v -30.39062 h -12.09766 v 30.625 c 0,11.24609 6.48047,17.57031 19.91797,17.57031 13.4375,0 19.91797,-6.08984 19.91797,-17.57031 z m 78.90234,30.30859 c 0,-7.42578 -3.43359,-12.03125 -9.91406,-13.82812 v -0.15625 c 4.68359,-1.94922 7.80859,-6.01172 7.80859,-12.58203 0,-9.29297 -6.40234,-14.99219 -19.13671,-14.99219 h -23.82422 v 58.58594 h 24.13672 c 14.76171,0 20.92968,-6.48047 20.92968,-17.02735 m -13.1914,-1.01562 c 0,5.55078 -2.34375,7.26953 -7.58203,7.26953 h -11.64844 v -14.22656 h 11.33594 c 5.70312,0 7.89453,2.03125 7.89453,6.95703 m -1.48828,-23.20313 c 0,4.61328 -2.03125,6.48828 -6.71875,6.48828 h -10.94532 v -12.74218 h 10.62891 c 4.92578,0 7.03516,1.64062 7.03516,6.2539 m 45.9375,42.10547 c 6.01562,0 11.48046,-1.25 15.46093,-3.04687 l -1.32422,-9.75782 c -4.0625,1.5625 -8.19921,2.34375 -12.65234,2.34375 -8.12891,0 -11.96094,-2.96875 -12.58594,-10.86718 h 27.57813 c 0.23437,-1.64063 0.3125,-3.90235 0.3125,-5.69922 0,-15 -7.41406,-22.02735 -19.52735,-22.02735 -14.21875,0 -20.85546,8.82032 -20.85546,23.90235 0,16.5664 7.26171,25.15234 23.59375,25.15234 m -11.33594,-29.36719 c 0.54687,-6.88281 2.8125,-9.61718 8.67578,-9.61718 5.08203,0 8.21094,2.65625 8.36719,9.61718 z m 49.375,28.50782 V 140.1875 c 0,-7.71875 4.6875,-12.22656 11.01562,-12.22656 1.875,0 3.67188,0.30468 5.15625,0.76172 l 0.78125,-11.92579 c -1.25,-0.39062 -3.04687,-0.70312 -5.15625,-0.70312 -5.39062,0 -10,2.8125 -12.96875,8.50781 h -0.23437 l -1.08985,-7.88281 -9.68359,0.46875 v 46.24219 z m 38.35937,0 v -61.39844 l -12.25781,0.54687 v 60.85157 z m 26.01563,0 v -47.33594 l -12.41016,0.53906 v 46.79688 z m 0.69922,-57.57422 c 0,-3.4336 -2.10547,-5.23047 -6.86719,-5.23047 -4.68359,0 -6.94531,1.875 -6.94531,5.23047 0,3.82422 2.26172,5.15234 6.94531,5.15234 4.76172,0 6.86719,-1.71875 6.86719,-5.15234 m 51.875,57.57422 v -30.16016 c 0,-11.78906 -6.32032,-18.11328 -16.31641,-18.11328 -4.92969,0 -9.53906,1.64062 -13.05859,4.68359 l -1.79297,-4.05859 -8.74219,0.54687 v 47.10157 h 12.17969 v -33.91016 c 1.63672,-2.26172 4.92187,-3.58984 7.96875,-3.58984 5.0039,0 7.66406,2.10937 7.66406,7.33984 v 30.16016 h 12.09766"
     id="path6"
     inkscape:connector-curvature="0"
     style="fill:#231f20;fill-opacity:1;fill-rule:nonzero" />
  <path
     d="m 414.66406,45.23437 c 0,-19.85156 -26.95312,-15.6289 -26.95312,-24.77343 0,-3.125 1.95312,-5.625 9.22265,-5.625 4.45704,0 9.29688,0.9375 14.13672,2.5 L 412.71094,6.25 c -4.52735,-1.875 -10.69531,-3.046875 -16.40235,-3.046875 -14.84375,0 -21.24609,8.039065 -21.24609,17.960935 0,19.61328 26.95313,15.70703 26.95313,24.92969 0,4.0625 -2.8125,6.40625 -9.22657,6.40625 -5.78125,0 -11.08984,-1.5625 -16.24218,-4.29688 l -1.71875,11.32422 c 5.07421,2.73047 11.32031,4.3711 18.12109,4.3711 13.67187,0 21.71484,-7.10547 21.71484,-18.66407 m 32.48438,-20.71093 v -9.05469 h -10.54688 v -11.25 l -9.52343,0.835938 -2.03125,10.414062 h -5.85938 v 9.05469 H 424.5 v 23.96484 c 0,8.85156 4.60547,14.3125 14.05469,14.3125 3.35937,0 6.48437,-0.62109 8.125,-1.32422 l -0.70313,-8.80469 c -0.85937,0.30079 -2.5,0.53125 -3.75,0.53125 -3.75,0 -5.625,-1.52343 -5.625,-5.09765 V 24.52344 Z m 34.60547,38.27734 h 9.29297 V 33.51563 c 0,-12.97266 -4.83985,-18.98438 -18.82422,-18.98438 -6.09766,0 -11.48828,1.09375 -16.2461,3.12109 l 1.01172,9.6836 c 4.3711,-1.79688 7.8086,-2.57813 13.04688,-2.57813 6.48828,0 8.98828,2.1875 8.98828,6.96094 v 2.73438 c -2.5,-0.78125 -5.55078,-1.32813 -9.06641,-1.32813 -10.78125,0 -16.87109,6.00781 -16.87109,14.75781 0,9.84766 5.69922,14.91797 14.67969,14.91797 5.39453,0 9.92968,-1.94922 12.82031,-5.38281 l 0.23437,0.0781 z m -2.73047,-14.375 c 0,2.43359 -3.75,4.77734 -7.89453,4.77734 -3.98828,0 -6.72266,-1.53906 -6.72266,-5.86328 0,-3.88672 2.5,-5.86718 7.89453,-5.86718 3.20313,0 5.55078,0.51562 6.72266,0.95312 z m 49.68359,14.375 h 9.28906 V 33.51563 c 0,-12.97266 -4.83593,-18.98438 -18.82031,-18.98438 -6.09765,0 -11.48828,1.09375 -16.25,3.12109 l 1.01563,9.6836 c 4.37109,-1.79688 7.80859,-2.57813 13.04687,-2.57813 6.48828,0 8.98828,2.1875 8.98828,6.96094 v 2.73438 c -2.5,-0.78125 -5.55078,-1.32813 -9.07031,-1.32813 -10.77734,0 -16.86719,6.00781 -16.86719,14.75781 0,9.84766 5.69922,14.91797 14.67969,14.91797 5.39453,0 9.92969,-1.94922 12.82031,-5.38281 l 0.23438,0.0781 z m -2.73047,-14.375 c 0,2.43359 -3.7539,4.77734 -7.89453,4.77734 -3.98828,0 -6.72265,-1.53906 -6.72265,-5.86328 0,-3.88672 2.5,-5.86718 7.89453,-5.86718 3.20312,0 5.55078,0.51562 6.72265,0.95312 z m 47.64453,-23.90234 v -9.05469 h -10.54687 v -11.25 l -9.52344,0.835938 -2.02734,10.414062 h -5.85938 v 9.05469 h 5.3125 v 23.96484 c 0,8.85156 4.60547,14.3125 14.05078,14.3125 3.36329,0 6.48829,-0.62109 8.125,-1.32422 l -0.70312,-8.80469 c -0.85938,0.30079 -2.5,0.53125 -3.75,0.53125 -3.75,0 -5.625,-1.52343 -5.625,-5.09765 V 24.52344 Z M 613.14063,48.125 c 0,-15.89453 -21.64454,-11.71094 -21.64454,-18.70703 0,-2.35938 2.19141,-3.87891 6.17969,-3.87891 3.51953,0 8.75,0.75782 12.65235,2.35547 l 1.01562,-9.84765 c -3.98047,-1.64063 -8.66406,-2.57813 -13.43359,-2.57813 -12.1875,0 -17.96485,6.08594 -17.96485,14.48047 0,16.12109 21.95313,11.86328 21.95313,19.24219 0,2.73437 -2.03516,4.63671 -6.88281,4.63671 -4.0625,0 -9.60547,-1.0664 -13.50782,-3.26953 l -1.25,9.90625 c 3.98047,2.1836 9.13282,3.27735 14.83594,3.27735 12.81641,0 18.04688,-6.32422 18.04688,-15.61719 m 50.93359,-9.15234 c 0,-17.33594 -6.86719,-24.36328 -17.80469,-24.36328 -4.29687,0 -8.4414,1.32812 -11.64844,4.21484 l -0.23437,-0.15625 0.15625,-6.24609 V 1.40625 L 622.44531,1.953125 V 62.80078 h 8.19532 l 1.5625,-3.90234 c 2.88671,2.89062 7.26562,4.84375 12.58203,4.84375 12.10937,0 19.28906,-7.41797 19.28906,-24.76172 z m -12.48828,0.24218 c 0,12.26953 -3.28516,14.76953 -8.75781,14.76953 -4.0625,0 -6.79688,-1.79687 -8.28516,-4.0625 V 29.21094 c 1.72266,-2.5 4.69141,-3.98828 8.20703,-3.98828 5.78516,0 8.83594,2.1914 8.83594,13.99218 m 35.45703,23.58594 V 15.46875 l -12.41406,0.53906 V 62.80078 Z M 687.74609,5.230469 C 687.74609,1.796875 685.64063,0 680.875,0 c -4.67969,0 -6.94922,1.875 -6.94922,5.230469 0,3.824219 2.26953,5.152341 6.94922,5.152341 4.76563,0 6.87109,-1.718748 6.87109,-5.152341 m 53.98438,33.742191 c 0,-17.33594 -6.87109,-24.36328 -17.80859,-24.36328 -4.29688,0 -8.44141,1.32812 -11.64454,4.21484 l -0.23437,-0.15625 0.15625,-6.24609 V 1.40625 L 700.09766,1.953125 V 62.80078 h 8.19531 l 1.5625,-3.90234 c 2.89062,2.89062 7.26562,4.84375 12.58594,4.84375 12.10547,0 19.28906,-7.41797 19.28906,-24.76172 z m -12.48828,0.24218 c 0,12.26953 -3.28516,14.76953 -8.75781,14.76953 -4.06641,0 -6.80079,-1.79687 -8.28516,-4.0625 V 29.21094 c 1.71875,-2.5 4.69141,-3.98828 8.20703,-3.98828 5.78516,0 8.83594,2.1914 8.83594,13.99218 m 34.83203,23.58594 V 1.40625 L 751.82031,1.953125 V 62.80078 Z m 26.01172,0 V 15.46875 l -12.41016,0.53906 V 62.80078 Z M 790.78906,5.230469 C 790.78906,1.796875 788.68359,0 783.91797,0 c -4.67969,0 -6.94531,1.875 -6.94531,5.230469 0,3.824219 2.26562,5.152341 6.94531,5.152341 4.76562,0 6.87109,-1.718748 6.87109,-5.152341 m 53.20313,34.062501 c 0,-17.34766 -6.55469,-24.68359 -21.63281,-24.68359 -15.00391,0 -21.71485,7.33593 -21.71485,24.68359 0,17.42578 6.71094,24.60547 21.71485,24.60547 15.07812,0 21.63281,-7.17969 21.63281,-24.60547 m -30.78125,0 c 0,-11.56641 2.42187,-14.69531 9.14844,-14.69531 6.64062,0 9.0625,3.1289 9.0625,14.69531 0,11.5664 -2.42188,14.6914 -9.0625,14.6914 -6.64844,0 -9.14844,-3.04687 -9.14844,-14.6914 m 64.13281,-14.76953 v -9.05469 h -10.54687 v -11.25 l -9.51954,0.835938 -2.03125,10.414062 h -5.85937 v 9.05469 h 5.3125 v 23.96484 c 0,8.85156 4.60547,14.3125 14.05078,14.3125 3.36328,0 6.48828,-0.62109 8.125,-1.32422 l -0.70312,-8.80469 c -0.85547,0.30079 -2.5,0.53125 -3.75,0.53125 -3.75,0 -5.625,-1.52343 -5.625,-5.09765 V 24.52344 Z m 48.43747,38.27734 V 32.64844 c 0,-11.40625 -5.8476,-18.11719 -15.8476,-18.11719 -3.9922,0 -8.28909,1.09375 -11.80862,4.05859 l -0.23047,-0.15625 0.15235,-6.24609 V 1.40625 l -12.09766,0.625 v 60.76953 h 12.09766 V 28.89844 c 1.48828,-2.03125 4.53515,-3.59766 8.05464,-3.59766 5.1602,0 7.5821,2.5 7.5821,7.34766 v 30.15234 z m 32.2696,0.86328 c 6.0195,0 11.4922,-1.25 15.4726,-3.04687 l -1.332,-9.75782 c -4.0586,1.5625 -8.1992,2.34375 -12.6484,2.34375 -8.1329,0 -11.961,-2.97265 -12.5899,-10.86718 h 27.5781 c 0.2422,-1.64063 0.3086,-3.90235 0.3086,-5.69922 0,-15.00391 -7.4062,-22.02734 -19.5195,-22.02734 -14.2188,0 -20.8594,8.82031 -20.8594,23.90234 0,16.5664 7.2617,25.15234 23.5899,25.15234 m -11.3282,-29.36718 c 0.5508,-6.88282 2.8086,-9.6211 8.6797,-9.6211 5.0782,0 8.1992,2.66016 8.3594,9.6211 z m 49.6875,-32.89063 -12.0976,0.546875 V 62.80078 h 12.0976 V 42.41797 h 6.17188 l 10.0781,20.38281 h 13.6719 l -13.3594,-25.85156 12.8907,-21.48047 h -13.4414 l -9.8399,17.10547 h -6.17188 V 1.40625"
     id="path8"
     inkscape:connector-curvature="0"
     style="fill:#231f20;fill-opacity:1;fill-rule:nonzero" />
</svg>
