<?xml version="1.0" encoding="UTF-8"?>
<svg xmlns="http://www.w3.org/2000/svg" xmlns:xlink="http://www.w3.org/1999/xlink" width="1502" height="473" viewBox="0 0 1502 473">
<path fill-rule="nonzero" fill="rgb(21.751404%, 27.333069%, 44.270325%)" fill-opacity="1" d="M 94.488281 95.050781 L 94.488281 299.695312 C 116.109375 273.238281 134.757812 262.230469 142.589844 258.753906 C 143.316406 258.429688 143.347656 257.929688 143.3125 257.714844 C 143.25 257.339844 142.886719 256.960938 141.941406 256.972656 C 138.089844 257.023438 130.132812 259.183594 124.929688 261.105469 C 123.71875 261.550781 123.527344 260.746094 124.019531 259.824219 C 125.132812 257.734375 130.226562 252.945312 145.441406 246.800781 C 170.5625 236.660156 196.527344 237.765625 208.414062 243.734375 C 213.679688 246.382812 215.890625 251.652344 216.53125 253.550781 C 216.613281 253.789062 216.503906 253.925781 216.320312 253.921875 C 197.871094 253.71875 189.558594 254.65625 184.054688 256.335938 C 182.410156 256.835938 182.253906 258.058594 183.695312 259.15625 C 186.300781 261.132812 194.390625 263.203125 197.621094 263.742188 C 198.585938 263.902344 199.109375 263.582031 199.710938 262.898438 C 200.398438 262.109375 201.277344 260.980469 202.046875 260.230469 C 202.648438 259.644531 202.953125 259.582031 204.097656 259.5 C 205.808594 259.375 209.746094 259.316406 213.21875 259.375 C 229.378906 259.664062 247.414062 263.660156 247.414062 286.546875 C 247.414062 294.773438 244.039062 302.816406 242.453125 305.273438 C 241.410156 306.890625 239.757812 306.816406 239.847656 304.398438 C 240.277344 293.164062 238.46875 288.546875 220.6875 288.546875 C 211.695312 288.546875 197.496094 289.847656 191.121094 292.839844 C 188.761719 293.949219 188.53125 295.984375 190.917969 295.773438 C 194.460938 295.46875 208.34375 294.511719 218.179688 294.511719 C 224.683594 294.511719 229.800781 295.164062 231.648438 297.757812 C 232.09375 298.382812 232.183594 299.558594 230.628906 299.332031 C 230.003906 299.242188 228.355469 299.054688 226.058594 299.054688 C 205.59375 299.054688 185.585938 311.121094 185.585938 332.019531 C 185.585938 365.226562 234.460938 378.515625 295.589844 378.515625 C 344.8125 378.515625 377.953125 367.949219 377.953125 367.949219 L 377.949219 95.050781 L 94.488281 95.050781 "/>
<path fill-rule="nonzero" fill="rgb(13.729858%, 12.159729%, 12.548828%)" fill-opacity="1" d="M 1386.320312 356.929688 L 1406.121094 328.496094 L 1406.121094 323.332031 L 1375.589844 323.332031 L 1375.371094 329.472656 L 1397.871094 329.472656 L 1397.941406 329.621094 L 1394.421875 334.421875 L 1374.539062 362.929688 L 1374.539062 368.023438 L 1406.339844 368.023438 L 1406.570312 361.882812 L 1382.871094 361.882812 L 1382.789062 361.65625 Z M 1354.960938 328.871094 L 1365.988281 328.871094 L 1365.988281 323.332031 L 1354.960938 323.332031 L 1354.960938 311.78125 L 1349.421875 312.375 L 1348.070312 323.332031 L 1341.621094 323.332031 L 1341.621094 328.871094 L 1347.851562 328.871094 L 1347.851562 355.945312 C 1347.851562 363.753906 1351.820312 368.023438 1359.460938 368.023438 C 1361.859375 368.023438 1364.339844 367.574219 1365.691406 366.898438 L 1365.238281 361.519531 C 1364.339844 361.886719 1362.761719 362.105469 1361.488281 362.105469 C 1357.441406 362.105469 1354.960938 360.273438 1354.960938 355.722656 Z M 1330.519531 312.003906 C 1330.519531 309.53125 1329.019531 308.179688 1325.941406 308.179688 C 1322.871094 308.179688 1321.371094 309.53125 1321.371094 312.003906 C 1321.371094 314.847656 1322.871094 315.820312 1325.941406 315.820312 C 1329.019531 315.820312 1330.519531 314.621094 1330.519531 312.003906 M 1286.710938 335.34375 C 1286.710938 331.746094 1290.089844 329.472656 1295.421875 329.472656 C 1299.019531 329.472656 1303.300781 330.277344 1307.039062 331.820312 L 1307.640625 325.878906 C 1304.050781 324.230469 1299.921875 323.332031 1295.570312 323.332031 C 1285.289062 323.332031 1279.96875 328.273438 1279.96875 335.707031 C 1279.96875 350.457031 1302.851562 345.835938 1302.851562 355.742188 C 1302.851562 359.851562 1300.148438 362.929688 1293.621094 362.929688 C 1289.339844 362.929688 1284.238281 361.609375 1280.871094 359.117188 L 1279.96875 365.179688 C 1283.421875 367.648438 1288.371094 368.921875 1293.691406 368.921875 C 1304.71875 368.921875 1309.441406 363.304688 1309.441406 355.078125 C 1309.441406 339.816406 1286.710938 344.660156 1286.710938 335.34375 M 1270.75 346.648438 C 1270.828125 345.675781 1270.898438 344.324219 1270.898438 343.203125 C 1270.898438 329.613281 1263.941406 323.332031 1253.28125 323.332031 C 1240.980469 323.332031 1234.839844 331.097656 1234.839844 344.476562 C 1234.839844 361.207031 1240.898438 368.921875 1255.609375 368.921875 C 1261.011719 368.921875 1265.660156 367.648438 1269.410156 365.628906 L 1268.578125 359.628906 C 1264.761719 361.507812 1260.941406 362.480469 1256.441406 362.480469 C 1246.828125 362.480469 1242.480469 358.429688 1242.101562 346.648438 Z M 1264.390625 341.78125 L 1241.949219 341.78125 C 1242.398438 333.433594 1245.78125 329.472656 1253.359375 329.472656 C 1259.808594 329.472656 1264.238281 332.867188 1264.390625 341.78125 M 1225.980469 345.527344 L 1225.980469 345.523438 C 1225.980469 328.574219 1219.390625 322.507812 1208.960938 322.507812 C 1204.011719 322.507812 1199.429688 324.152344 1196.210938 327.523438 L 1196.050781 327.449219 L 1196.128906 321.457031 L 1196.128906 308.332031 L 1189.089844 308.78125 L 1189.089844 368.023438 L 1193.808594 368.023438 L 1194.929688 363.371094 L 1195.160156 363.296875 C 1197.929688 366.75 1202.578125 368.847656 1208.128906 368.847656 C 1219.460938 368.847656 1225.980469 362.332031 1225.980469 345.527344 M 1218.789062 345.675781 C 1218.789062 359.554688 1214.140625 362.929688 1207.160156 362.929688 C 1201.679688 362.929688 1197.929688 360.382812 1196.128906 357.453125 L 1196.128906 334.273438 C 1198.460938 330.898438 1202.359375 328.945312 1207.078125 328.945312 C 1214.441406 328.945312 1218.789062 332.097656 1218.789062 345.675781 M 1177.898438 331.113281 L 1178.359375 323.929688 C 1177.148438 323.554688 1175.578125 323.332031 1173.929688 323.332031 C 1167.859375 323.332031 1162.980469 327.074219 1160.210938 333.46875 L 1160.058594 333.46875 L 1159.460938 323.929688 L 1153.769531 324.304688 L 1153.769531 368.023438 L 1160.878906 368.023438 L 1160.878906 345.773438 C 1160.878906 336.34375 1166.511719 330.523438 1173.480469 330.523438 C 1175.050781 330.523438 1176.550781 330.671875 1177.898438 331.113281 M 1140.480469 353.332031 L 1140.480469 323.332031 L 1133.441406 323.332031 L 1133.441406 353.179688 C 1133.441406 359.257812 1129.910156 362.332031 1123.160156 362.332031 C 1116.261719 362.332031 1112.808594 359.179688 1112.808594 353.179688 L 1112.808594 323.332031 L 1105.769531 323.332031 L 1105.769531 353.332031 C 1105.769531 363.15625 1111.378906 368.847656 1123.089844 368.847656 C 1134.859375 368.847656 1140.480469 363.230469 1140.480469 353.332031 M 1085.300781 328.871094 L 1096.320312 328.871094 L 1096.320312 323.332031 L 1085.300781 323.332031 L 1085.300781 311.78125 L 1079.75 312.375 L 1078.398438 323.332031 L 1071.960938 323.332031 L 1071.960938 328.871094 L 1078.179688 328.871094 L 1078.179688 355.945312 C 1078.179688 363.753906 1082.148438 368.023438 1089.800781 368.023438 C 1092.199219 368.023438 1094.671875 367.574219 1096.019531 366.898438 L 1095.570312 361.519531 C 1094.671875 361.886719 1093.101562 362.105469 1091.820312 362.105469 C 1087.769531 362.105469 1085.300781 360.273438 1085.300781 355.722656 Z M 1053.210938 368.023438 L 1060.320312 368.023438 L 1060.320312 308.40625 L 1053.210938 308.855469 Z M 1038.5 353.332031 L 1038.5 323.332031 L 1031.460938 323.332031 L 1031.460938 353.179688 C 1031.460938 359.257812 1027.929688 362.332031 1021.179688 362.332031 C 1014.269531 362.332031 1010.820312 359.179688 1010.820312 353.179688 L 1010.820312 323.332031 L 1003.78125 323.332031 L 1003.78125 353.332031 C 1003.78125 363.15625 1009.398438 368.847656 1021.101562 368.847656 C 1032.878906 368.847656 1038.5 363.230469 1038.5 353.332031 M 995.6875 368.023438 L 975.136719 338.402344 L 994.5625 311.78125 L 985.414062 311.78125 L 968.164062 335.554688 L 959.839844 335.554688 L 959.839844 311.78125 L 952.195312 311.78125 L 952.195312 368.023438 L 959.839844 368.023438 L 959.839844 342.070312 L 968.011719 342.070312 L 986.089844 368.023438 Z M 916.414062 331.113281 L 916.863281 323.929688 C 915.664062 323.554688 914.089844 323.332031 912.4375 323.332031 C 906.363281 323.332031 901.488281 327.074219 898.714844 333.46875 L 898.566406 333.46875 L 897.964844 323.929688 L 892.273438 324.304688 L 892.273438 368.023438 L 899.390625 368.023438 L 899.390625 345.773438 C 899.390625 336.34375 905.015625 330.523438 911.988281 330.523438 C 913.5625 330.523438 915.0625 330.671875 916.414062 331.113281 M 880.789062 346.648438 C 880.863281 345.675781 880.941406 344.324219 880.941406 343.203125 C 880.941406 329.613281 873.976562 323.332031 863.320312 323.332031 C 851.015625 323.332031 844.875 331.097656 844.875 344.476562 C 844.875 361.207031 850.941406 368.921875 865.644531 368.921875 C 871.050781 368.921875 875.695312 367.648438 879.441406 365.628906 L 878.617188 359.628906 C 874.800781 361.507812 870.972656 362.480469 866.472656 362.480469 C 856.867188 362.480469 852.515625 358.429688 852.140625 346.648438 Z M 874.425781 341.78125 L 851.988281 341.78125 C 852.441406 333.433594 855.816406 329.472656 863.394531 329.472656 C 869.847656 329.472656 874.273438 332.867188 874.425781 341.78125 M 827.101562 368.023438 L 834.140625 368.023438 L 834.140625 338.398438 C 834.140625 328.199219 828.820312 322.507812 819.070312 322.507812 C 814.34375 322.507812 809.769531 324.078125 806.539062 327.449219 L 806.390625 327.375 L 806.464844 321.382812 L 806.464844 308.40625 L 799.425781 308.851562 L 799.425781 368.023438 L 806.464844 368.023438 L 806.464844 334.195312 C 808.265625 331.347656 812.316406 329.097656 816.972656 329.097656 C 823.875 329.097656 827.101562 332.398438 827.101562 338.398438 Z M 764.917969 345.726562 C 764.917969 334.402344 768.515625 329.847656 778.191406 329.847656 C 781.417969 329.847656 784.640625 330.65625 787.265625 331.832031 L 787.71875 325.503906 C 784.792969 324.230469 780.742188 323.332031 776.765625 323.332031 C 763.421875 323.332031 757.574219 330.949219 757.574219 345.726562 C 757.574219 361.824219 764.019531 368.996094 776.542969 368.996094 C 781.265625 368.996094 785.46875 367.722656 788.09375 365.925781 L 787.566406 360.132812 C 784.867188 361.75 781.566406 362.632812 778.042969 362.632812 C 769.492188 362.632812 764.917969 358.074219 764.917969 345.726562 M 726.367188 335.34375 C 726.367188 331.746094 729.742188 329.472656 735.070312 329.472656 C 738.675781 329.472656 742.949219 330.277344 746.695312 331.820312 L 747.296875 325.878906 C 743.699219 324.230469 739.574219 323.332031 735.222656 323.332031 C 724.945312 323.332031 719.628906 328.273438 719.628906 335.707031 C 719.628906 350.457031 742.503906 345.835938 742.503906 355.742188 C 742.503906 359.851562 739.800781 362.929688 733.269531 362.929688 C 728.992188 362.929688 723.894531 361.609375 720.527344 359.117188 L 719.628906 365.179688 C 723.070312 367.648438 728.019531 368.921875 733.347656 368.921875 C 744.375 368.921875 749.09375 363.304688 749.09375 355.078125 C 749.09375 339.816406 726.367188 344.660156 726.367188 335.34375 M 706.792969 312.003906 C 706.792969 309.53125 705.292969 308.179688 702.222656 308.179688 C 699.152344 308.179688 697.652344 309.53125 697.652344 312.003906 C 697.652344 314.847656 699.152344 315.820312 702.222656 315.820312 C 705.292969 315.820312 706.792969 314.621094 706.792969 312.003906 M 685.941406 353.820312 C 685.941406 341.628906 669.449219 339.632812 669.449219 335.789062 C 669.449219 332.6875 679.199219 328.917969 679.199219 321.453125 C 679.199219 315.523438 673.648438 310.804688 665.621094 310.804688 C 654.371094 310.804688 648.152344 317.539062 648.152344 330.101562 L 648.152344 379.203125 L 655.191406 379.203125 L 655.191406 329.433594 C 655.191406 321.085938 658.644531 316.945312 665.472656 316.945312 C 669.75 316.945312 672.449219 318.941406 672.449219 321.675781 C 672.449219 327.660156 661.871094 331.207031 661.871094 336.675781 C 661.871094 343.621094 678.753906 344.878906 678.753906 354.039062 C 678.753906 359.066406 674.324219 361.503906 668.097656 361.503906 C 665.285156 361.503906 662.574219 360.792969 660.292969 359.765625 L 659.847656 366.257812 C 662.703125 367.453125 666.261719 368.019531 669.296875 368.019531 C 679.277344 368.019531 685.941406 362.628906 685.941406 353.820312 M 634.417969 353.332031 L 634.417969 323.332031 L 627.378906 323.332031 L 627.378906 353.179688 C 627.378906 359.257812 623.851562 362.332031 617.097656 362.332031 C 610.195312 362.332031 606.742188 359.179688 606.742188 353.179688 L 606.742188 323.332031 L 599.703125 323.332031 L 599.703125 353.332031 C 599.703125 363.15625 605.320312 368.847656 617.023438 368.847656 C 628.800781 368.847656 634.417969 363.230469 634.417969 353.332031 M 588.894531 346.648438 C 588.96875 345.675781 589.046875 344.324219 589.046875 343.203125 C 589.046875 329.613281 582.078125 323.332031 571.425781 323.332031 C 559.121094 323.332031 552.980469 331.097656 552.980469 344.476562 C 552.980469 361.207031 559.046875 368.921875 573.75 368.921875 C 579.152344 368.921875 583.804688 367.648438 587.546875 365.628906 L 586.722656 359.628906 C 582.902344 361.507812 579.078125 362.480469 574.574219 362.480469 C 564.972656 362.480469 560.621094 358.429688 560.246094 346.648438 Z M 582.527344 341.78125 L 560.09375 341.78125 C 560.546875 333.433594 563.921875 329.472656 571.5 329.472656 C 577.953125 329.472656 582.378906 332.867188 582.527344 341.78125 M 545.929688 331.113281 L 546.382812 323.929688 C 545.179688 323.554688 543.605469 323.332031 541.957031 323.332031 C 535.882812 323.332031 531.007812 327.074219 528.230469 333.46875 L 528.082031 333.46875 L 527.484375 323.929688 L 521.789062 324.304688 L 521.789062 368.023438 L 528.90625 368.023438 L 528.90625 345.773438 C 528.90625 336.34375 534.53125 330.523438 541.507812 330.523438 C 543.082031 330.523438 544.582031 330.671875 545.929688 331.113281 M 510.757812 329.402344 C 510.757812 317.175781 504.914062 311.78125 491.109375 311.78125 L 472.441406 311.78125 L 472.441406 368.023438 L 480.082031 368.023438 L 480.082031 346.945312 L 491.109375 346.945312 C 505.0625 346.945312 510.757812 340.957031 510.757812 329.402344 M 502.890625 329.402344 C 502.890625 338.03125 499.0625 340.507812 491.109375 340.507812 L 480.082031 340.507812 L 480.082031 318.445312 L 491.109375 318.445312 C 499.289062 318.445312 502.890625 321.222656 502.890625 329.402344 M 705.742188 323.332031 L 698.628906 323.699219 L 698.628906 368.023438 L 705.742188 368.023438 Z M 1329.460938 323.332031 L 1322.351562 323.699219 L 1322.351562 368.023438 L 1329.460938 368.023438 L 1329.460938 323.332031 "/>
<path fill-rule="nonzero" fill="rgb(13.729858%, 12.159729%, 12.548828%)" fill-opacity="1" d="M 507.519531 215.367188 L 507.519531 206.9375 L 473.457031 206.9375 L 473.066406 217.007812 L 493.457031 217.007812 L 493.535156 217.160156 L 489.785156 222.085938 L 472.441406 245.765625 L 472.441406 254.273438 L 507.910156 254.273438 L 508.222656 244.203125 L 486.503906 244.203125 L 486.425781 243.96875 L 490.175781 239.125 Z M 556.96875 206.9375 L 544.867188 206.9375 L 544.867188 237.328125 C 544.867188 242.171875 542.367188 244.4375 537.050781 244.4375 C 531.734375 244.4375 529.230469 242.015625 529.230469 237.328125 L 529.230469 206.9375 L 517.132812 206.9375 L 517.132812 237.5625 C 517.132812 248.808594 523.613281 255.132812 537.050781 255.132812 C 550.488281 255.132812 556.96875 249.042969 556.96875 237.5625 Z M 635.871094 237.246094 C 635.871094 229.820312 632.4375 225.214844 625.957031 223.417969 L 625.957031 223.261719 C 630.640625 221.3125 633.765625 217.25 633.765625 210.679688 C 633.765625 201.386719 627.363281 195.6875 614.628906 195.6875 L 590.804688 195.6875 L 590.804688 254.273438 L 614.941406 254.273438 C 629.703125 254.273438 635.871094 247.792969 635.871094 237.246094 M 622.679688 236.230469 C 622.679688 241.78125 620.335938 243.5 615.097656 243.5 L 603.449219 243.5 L 603.449219 229.273438 L 614.785156 229.273438 C 620.488281 229.273438 622.679688 231.304688 622.679688 236.230469 M 621.191406 213.027344 C 621.191406 217.640625 619.160156 219.515625 614.472656 219.515625 L 603.527344 219.515625 L 603.527344 206.773438 L 614.15625 206.773438 C 619.082031 206.773438 621.191406 208.414062 621.191406 213.027344 M 667.128906 255.132812 C 673.144531 255.132812 678.609375 253.882812 682.589844 252.085938 L 681.265625 242.328125 C 677.203125 243.890625 673.066406 244.671875 668.613281 244.671875 C 660.484375 244.671875 656.652344 241.703125 656.027344 233.804688 L 683.605469 233.804688 C 683.839844 232.164062 683.917969 229.902344 683.917969 228.105469 C 683.917969 213.105469 676.503906 206.078125 664.390625 206.078125 C 650.171875 206.078125 643.535156 214.898438 643.535156 229.980469 C 643.535156 246.546875 650.796875 255.132812 667.128906 255.132812 M 655.792969 225.765625 C 656.339844 218.882812 658.605469 216.148438 664.46875 216.148438 C 669.550781 216.148438 672.679688 218.804688 672.835938 225.765625 Z M 705.167969 254.273438 L 705.167969 231.03125 C 705.167969 223.3125 709.855469 218.804688 716.183594 218.804688 C 718.058594 218.804688 719.855469 219.109375 721.339844 219.566406 L 722.121094 207.640625 C 720.871094 207.25 719.074219 206.9375 716.964844 206.9375 C 711.574219 206.9375 706.964844 209.75 703.996094 215.445312 L 703.761719 215.445312 L 702.671875 207.5625 L 692.988281 208.03125 L 692.988281 254.273438 Z M 743.527344 254.273438 L 743.527344 192.875 L 731.269531 193.421875 L 731.269531 254.273438 Z M 769.542969 254.273438 L 769.542969 206.9375 L 757.132812 207.476562 L 757.132812 254.273438 Z M 770.242188 196.699219 C 770.242188 193.265625 768.136719 191.46875 763.375 191.46875 C 758.691406 191.46875 756.429688 193.34375 756.429688 196.699219 C 756.429688 200.523438 758.691406 201.851562 763.375 201.851562 C 768.136719 201.851562 770.242188 200.132812 770.242188 196.699219 M 822.117188 254.273438 L 822.117188 224.113281 C 822.117188 212.324219 815.796875 206 805.800781 206 C 800.871094 206 796.261719 207.640625 792.742188 210.683594 L 790.949219 206.625 L 782.207031 207.171875 L 782.207031 254.273438 L 794.386719 254.273438 L 794.386719 220.363281 C 796.023438 218.101562 799.308594 216.773438 802.355469 216.773438 C 807.359375 216.773438 810.019531 218.882812 810.019531 224.113281 L 810.019531 254.273438 L 822.117188 254.273438 "/>
<path fill-rule="nonzero" fill="rgb(13.729858%, 12.159729%, 12.548828%)" fill-opacity="1" d="M 509.152344 136.078125 C 509.152344 116.226562 482.199219 120.449219 482.199219 111.304688 C 482.199219 108.179688 484.152344 105.679688 491.421875 105.679688 C 495.878906 105.679688 500.71875 106.617188 505.558594 108.179688 L 507.199219 97.09375 C 502.671875 95.21875 496.503906 94.046875 490.796875 94.046875 C 475.953125 94.046875 469.550781 102.085938 469.550781 112.007812 C 469.550781 131.621094 496.503906 127.714844 496.503906 136.9375 C 496.503906 141 493.691406 143.34375 487.277344 143.34375 C 481.496094 143.34375 476.1875 141.78125 471.035156 139.046875 L 469.316406 150.371094 C 474.390625 153.101562 480.636719 154.742188 487.4375 154.742188 C 501.109375 154.742188 509.152344 147.636719 509.152344 136.078125 M 541.636719 115.367188 L 541.636719 106.3125 L 531.089844 106.3125 L 531.089844 95.0625 L 521.566406 95.898438 L 519.535156 106.3125 L 513.675781 106.3125 L 513.675781 115.367188 L 518.988281 115.367188 L 518.988281 139.332031 C 518.988281 148.183594 523.59375 153.644531 533.042969 153.644531 C 536.402344 153.644531 539.527344 153.023438 541.167969 152.320312 L 540.464844 143.515625 C 539.605469 143.816406 537.964844 144.046875 536.714844 144.046875 C 532.964844 144.046875 531.089844 142.523438 531.089844 138.949219 L 531.089844 115.367188 Z M 576.242188 153.644531 L 585.535156 153.644531 L 585.535156 124.359375 C 585.535156 111.386719 580.695312 105.375 566.710938 105.375 C 560.613281 105.375 555.222656 106.46875 550.464844 108.496094 L 551.476562 118.179688 C 555.847656 116.382812 559.285156 115.601562 564.523438 115.601562 C 571.011719 115.601562 573.511719 117.789062 573.511719 122.5625 L 573.511719 125.296875 C 571.011719 124.515625 567.960938 123.96875 564.445312 123.96875 C 553.664062 123.96875 547.574219 129.976562 547.574219 138.726562 C 547.574219 148.574219 553.273438 153.644531 562.253906 153.644531 C 567.648438 153.644531 572.183594 151.695312 575.074219 148.261719 L 575.308594 148.339844 Z M 573.511719 139.269531 C 573.511719 141.703125 569.761719 144.046875 565.617188 144.046875 C 561.628906 144.046875 558.894531 142.507812 558.894531 138.183594 C 558.894531 134.296875 561.394531 132.316406 566.789062 132.316406 C 569.992188 132.316406 572.339844 132.832031 573.511719 133.269531 Z M 623.195312 153.644531 L 632.484375 153.644531 L 632.484375 124.359375 C 632.484375 111.386719 627.648438 105.375 613.664062 105.375 C 607.566406 105.375 602.175781 106.46875 597.414062 108.496094 L 598.429688 118.179688 C 602.800781 116.382812 606.238281 115.601562 611.476562 115.601562 C 617.964844 115.601562 620.464844 117.789062 620.464844 122.5625 L 620.464844 125.296875 C 617.964844 124.515625 614.914062 123.96875 611.394531 123.96875 C 600.617188 123.96875 594.527344 129.976562 594.527344 138.726562 C 594.527344 148.574219 600.226562 153.644531 609.207031 153.644531 C 614.601562 153.644531 619.136719 151.695312 622.027344 148.261719 L 622.261719 148.339844 Z M 620.464844 139.269531 C 620.464844 141.703125 616.710938 144.046875 612.570312 144.046875 C 608.582031 144.046875 605.847656 142.507812 605.847656 138.183594 C 605.847656 134.296875 608.347656 132.316406 613.742188 132.316406 C 616.945312 132.316406 619.292969 132.832031 620.464844 133.269531 Z M 668.109375 115.367188 L 668.109375 106.3125 L 657.5625 106.3125 L 657.5625 95.0625 L 648.039062 95.898438 L 646.011719 106.3125 L 640.152344 106.3125 L 640.152344 115.367188 L 645.464844 115.367188 L 645.464844 139.332031 C 645.464844 148.183594 650.070312 153.644531 659.515625 153.644531 C 662.878906 153.644531 666.003906 153.023438 667.640625 152.320312 L 666.9375 143.515625 C 666.078125 143.816406 664.4375 144.046875 663.1875 144.046875 C 659.4375 144.046875 657.5625 142.523438 657.5625 138.949219 L 657.5625 115.367188 Z M 707.628906 138.96875 C 707.628906 123.074219 685.984375 127.257812 685.984375 120.261719 C 685.984375 117.902344 688.175781 116.382812 692.164062 116.382812 C 695.683594 116.382812 700.914062 117.140625 704.816406 118.738281 L 705.832031 108.890625 C 701.851562 107.25 697.167969 106.3125 692.398438 106.3125 C 680.210938 106.3125 674.433594 112.398438 674.433594 120.792969 C 674.433594 136.914062 696.386719 132.65625 696.386719 140.035156 C 696.386719 142.769531 694.351562 144.671875 689.503906 144.671875 C 685.441406 144.671875 679.898438 143.605469 675.996094 141.402344 L 674.746094 151.308594 C 678.726562 153.492188 683.878906 154.585938 689.582031 154.585938 C 702.398438 154.585938 707.628906 148.261719 707.628906 138.96875 M 758.5625 129.816406 C 758.5625 112.480469 751.695312 105.453125 740.757812 105.453125 C 736.460938 105.453125 732.316406 106.78125 729.109375 109.667969 L 728.875 109.511719 L 729.03125 103.265625 L 729.03125 92.25 L 716.933594 92.796875 L 716.933594 153.644531 L 725.128906 153.644531 L 726.691406 149.742188 C 729.578125 152.632812 733.957031 154.585938 739.273438 154.585938 C 751.382812 154.585938 758.5625 147.167969 758.5625 129.824219 Z M 746.074219 130.058594 C 746.074219 142.328125 742.789062 144.828125 737.316406 144.828125 C 733.253906 144.828125 730.519531 143.03125 729.03125 140.765625 L 729.03125 120.054688 C 730.753906 117.554688 733.722656 116.066406 737.238281 116.066406 C 743.023438 116.066406 746.074219 118.257812 746.074219 130.058594 M 781.53125 153.644531 L 781.53125 106.3125 L 769.117188 106.851562 L 769.117188 153.644531 Z M 782.234375 96.074219 C 782.234375 92.640625 780.128906 90.84375 775.363281 90.84375 C 770.683594 90.84375 768.414062 92.71875 768.414062 96.074219 C 768.414062 99.898438 770.683594 101.226562 775.363281 101.226562 C 780.128906 101.226562 782.234375 99.507812 782.234375 96.074219 M 836.21875 129.816406 C 836.21875 112.480469 829.347656 105.453125 818.410156 105.453125 C 814.113281 105.453125 809.96875 106.78125 806.765625 109.667969 L 806.53125 109.511719 L 806.6875 103.265625 L 806.6875 92.25 L 794.585938 92.796875 L 794.585938 153.644531 L 802.78125 153.644531 L 804.34375 149.742188 C 807.234375 152.632812 811.609375 154.585938 816.929688 154.585938 C 829.035156 154.585938 836.21875 147.167969 836.21875 129.824219 Z M 823.730469 130.058594 C 823.730469 142.328125 820.445312 144.828125 814.972656 144.828125 C 810.90625 144.828125 808.171875 143.03125 806.6875 140.765625 L 806.6875 120.054688 C 808.40625 117.554688 811.378906 116.066406 814.894531 116.066406 C 820.679688 116.066406 823.730469 118.257812 823.730469 130.058594 M 858.5625 153.644531 L 858.5625 92.25 L 846.308594 92.796875 L 846.308594 153.644531 Z M 884.574219 153.644531 L 884.574219 106.3125 L 872.164062 106.851562 L 872.164062 153.644531 Z M 885.277344 96.074219 C 885.277344 92.640625 883.171875 90.84375 878.40625 90.84375 C 873.726562 90.84375 871.460938 92.71875 871.460938 96.074219 C 871.460938 99.898438 873.726562 101.226562 878.40625 101.226562 C 883.171875 101.226562 885.277344 99.507812 885.277344 96.074219 M 938.480469 130.136719 C 938.480469 112.789062 931.925781 105.453125 916.847656 105.453125 C 901.84375 105.453125 895.132812 112.789062 895.132812 130.136719 C 895.132812 147.5625 901.84375 154.742188 916.847656 154.742188 C 931.925781 154.742188 938.480469 147.5625 938.480469 130.136719 M 907.699219 130.136719 C 907.699219 118.570312 910.121094 115.441406 916.847656 115.441406 C 923.488281 115.441406 925.910156 118.570312 925.910156 130.136719 C 925.910156 141.703125 923.488281 144.828125 916.847656 144.828125 C 910.199219 144.828125 907.699219 141.78125 907.699219 130.136719 M 971.832031 115.367188 L 971.832031 106.3125 L 961.285156 106.3125 L 961.285156 95.0625 L 951.765625 95.898438 L 949.734375 106.3125 L 943.875 106.3125 L 943.875 115.367188 L 949.1875 115.367188 L 949.1875 139.332031 C 949.1875 148.183594 953.792969 153.644531 963.238281 153.644531 C 966.601562 153.644531 969.726562 153.023438 971.363281 152.320312 L 970.660156 143.515625 C 969.804688 143.816406 968.160156 144.046875 966.910156 144.046875 C 963.160156 144.046875 961.285156 142.523438 961.285156 138.949219 L 961.285156 115.367188 Z M 1020.269531 153.644531 L 1020.269531 123.492188 C 1020.269531 112.085938 1014.421875 105.375 1004.421875 105.375 C 1000.429688 105.375 996.132812 106.46875 992.613281 109.433594 L 992.382812 109.277344 L 992.535156 103.03125 L 992.535156 92.25 L 980.4375 92.875 L 980.4375 153.644531 L 992.535156 153.644531 L 992.535156 119.742188 C 994.023438 117.710938 997.070312 116.144531 1000.589844 116.144531 C 1005.75 116.144531 1008.171875 118.644531 1008.171875 123.492188 L 1008.171875 153.644531 Z M 1052.539062 154.507812 C 1058.558594 154.507812 1064.03125 153.257812 1068.011719 151.460938 L 1066.679688 141.703125 C 1062.621094 143.265625 1058.480469 144.046875 1054.03125 144.046875 C 1045.898438 144.046875 1042.070312 141.074219 1041.441406 133.179688 L 1069.019531 133.179688 C 1069.261719 131.539062 1069.328125 129.277344 1069.328125 127.480469 C 1069.328125 112.476562 1061.921875 105.453125 1049.808594 105.453125 C 1035.589844 105.453125 1028.949219 114.273438 1028.949219 129.355469 C 1028.949219 145.921875 1036.210938 154.507812 1052.539062 154.507812 M 1041.210938 125.140625 C 1041.761719 118.257812 1044.019531 115.519531 1049.890625 115.519531 C 1054.96875 115.519531 1058.089844 118.179688 1058.25 125.140625 Z M 1090.898438 92.25 L 1078.800781 92.796875 L 1078.800781 153.644531 L 1090.898438 153.644531 L 1090.898438 133.261719 L 1097.070312 133.261719 L 1107.148438 153.644531 L 1120.820312 153.644531 L 1107.460938 127.792969 L 1120.351562 106.3125 L 1106.910156 106.3125 L 1097.070312 123.417969 L 1090.898438 123.417969 L 1090.898438 92.25 "/>
</svg>
